<?xml version="1.0" encoding="utf-8"?>
<!-- Generator: Adobe Illustrator 28.3.0, SVG Export Plug-In . SVG Version: 6.00 Build 0)  -->
<svg version="1.1" xmlns="http://www.w3.org/2000/svg" xmlns:xlink="http://www.w3.org/1999/xlink" x="0px" y="0px"
	 viewBox="0 0 744 744" style="enable-background:new 0 0 744 744;" xml:space="preserve">
<style type="text/css">
	.st0{fill:#FFFFFF;}
	.st1{fill:#2B2B21;}
	.st2{fill:#EEBE80;}
	.st3{fill:#DE7E00;}
	.st4{font-family:'ArialMT';}
	.st5{font-size:61.0462px;}
</style>
<g id="Cornice">
	<g>
		<path class="st0" d="M372,650c-74.3,0-144.1-28.9-196.6-81.4C122.9,516.1,94,446.3,94,372c0-74.3,28.9-144.1,81.4-196.6
			C227.9,122.9,297.7,94,372,94s144.1,28.9,196.6,81.4C621.1,227.9,650,297.7,650,372c0,74.3-28.9,144.1-81.4,196.6
			C516.1,621.1,446.3,650,372,650z"/>
		<path class="st1" d="M372,95c37.4,0,73.7,7.3,107.8,21.8c33,14,62.6,33.9,88.1,59.4c25.4,25.4,45.4,55.1,59.4,88.1
			C641.7,298.3,649,334.6,649,372c0,37.4-7.3,73.7-21.8,107.8c-14,33-33.9,62.6-59.4,88.1c-25.4,25.4-55.1,45.4-88.1,59.4
			C445.7,641.7,409.4,649,372,649s-73.7-7.3-107.8-21.8c-33-14-62.6-33.9-88.1-59.4c-25.4-25.4-45.4-55.1-59.4-88.1
			C102.3,445.7,95,409.4,95,372c0-37.4,7.3-73.7,21.8-107.8c14-33,33.9-62.6,59.4-88.1c25.4-25.4,55.1-45.4,88.1-59.4
			C298.3,102.3,334.6,95,372,95 M372,93C217.9,93,93,217.9,93,372c0,154.1,124.9,279,279,279c154.1,0,279-124.9,279-279
			C651,217.9,526.1,93,372,93L372,93z"/>
	</g>
	<path class="st1" d="M372,191.9c48.1,0,93.3,18.7,127.3,52.7c34,34,52.8,79.2,52.8,127.3c0,48.1-18.7,93.3-52.8,127.4
		s-79.2,52.8-127.3,52.8s-93.3-18.7-127.3-52.8c-34-34-52.8-79.2-52.8-127.4c0-48.1,18.7-93.3,52.8-127.3
		C278.7,210.6,323.9,191.9,372,191.9 M372,186c-102.7,0-186,83.3-186,186s83.3,186,186,186s186-83.3,186-186S474.7,186,372,186
		L372,186z"/>
</g>
<g id="Pittogramma">
	<g>
		<g>
			<g>
				<path class="st1" d="M450,339.6l-53.1-92c-1.9-3.3-5.4-5.3-9.2-5.3h-31.4c-3.8,0-7.3,2-9.2,5.3L237,438.3c-1,1.8,0.3,4,2.3,4
					h20.3l93.6-162.2l34.3,59.5H450z"/>
				<path class="st1" d="M507,438.3l-13.3-23h-62.4l15.6,27h57.8C506.7,442.3,508,440,507,438.3z"/>
			</g>
			<path class="st2" d="M323.6,353.1L312.7,372h174.8l10.1-17.6c1-1.8-0.3-4.1-2.3-4.1h-167C326.4,350.4,324.6,351.4,323.6,353.1z"
				/>
			<path class="st3" d="M304.9,385.5L294,404.4h193.5l10.1-17.6c1-1.8-0.3-4.1-2.3-4.1H309.6C307.7,382.8,305.9,383.8,304.9,385.5z"
				/>
		</g>
	</g>
</g>
<g id="Testi">
	<g>
		<path class="st1" d="M202.6,566.5l4.9-12l-16.6-16.2l-11.9,5.2l-5.4-5.2l52.2-22.4l6.4,6.3l-21.6,52.2L202.6,566.5z M219.3,525.7
			l-22.2,9.8l13.1,12.8l9.3-22.4L219.3,525.7z"/>
		<path class="st1" d="M267.4,593.5l1.5,4.8c-4.2,1.9-8.5,2.7-12.9,2.3c-4.5-0.3-8.7-1.7-12.7-4c-6.8-4.1-11.3-9.8-13.3-17.2
			c-2-7.4-1-14.5,3-21.2c4-6.8,9.8-11,17.3-12.8c7.5-1.7,14.6-0.6,21.4,3.4c3.8,2.2,6.8,5.1,9.1,8.7c2.3,3.5,3.6,7.5,4.1,11.8
			l-4.6,1.2c-0.5-3.3-1.6-6.3-3.4-9.1c-1.8-2.8-4.1-5-6.9-6.7c-4.9-2.9-9.9-3.4-15.1-1.4c-5.1,2-9.2,5.5-12.2,10.5
			c-3,5-4.1,10.3-3.4,15.7c0.7,5.5,3.5,9.6,8.4,12.5c3,1.8,6.2,2.8,9.7,3C260.8,595.4,264.2,594.8,267.4,593.5z"/>
		<path class="st1" d="M326.3,612.6l2.7,4.3c-3.5,2.9-7.5,4.7-11.9,5.5c-4.4,0.8-8.8,0.6-13.3-0.7c-7.6-2.2-13.4-6.6-17.2-13.3
			c-3.8-6.6-4.7-13.7-2.5-21.3c2.2-7.6,6.7-13.2,13.5-16.7c6.8-3.5,14-4.2,21.6-2.1c4.2,1.2,7.9,3.2,11,6.1
			c3.1,2.8,5.4,6.3,6.9,10.4l-4.2,2.3c-1.3-3-3.2-5.7-5.6-7.9c-2.4-2.2-5.2-3.8-8.3-4.7c-5.5-1.6-10.5-0.8-14.9,2.5
			c-4.5,3.2-7.5,7.6-9.1,13.2c-1.6,5.6-1.4,11,0.7,16.1c2.1,5.1,5.9,8.4,11.3,10c3.3,1,6.7,1.1,10.1,0.4
			C320.5,616.1,323.6,614.7,326.3,612.6z"/>
		<path class="st1" d="M367.1,610.3l-11-0.3l-0.5,19.1l-10.5-0.2l1.3-52.5l19.1,0.5c3.9,0.1,7.5,0.7,10.7,1.8c3.2,1.1,5.9,3,8.2,5.7
			c2.2,2.7,3.3,6,3.2,9.9c-0.1,3.3-1.1,6.1-3.1,8.4s-4.5,3.9-7.8,4.8l0,0.4l14.5,22.1l-11.6-0.3L367.1,610.3z M356.2,604.1l8.6,0.2
			c3.2,0.1,5.9-0.8,8.1-2.7c2.2-1.9,3.3-4.4,3.4-7.5c0.1-3.2-0.9-5.8-3-7.7c-2.1-2-4.8-3-8-3l-8.6-0.2L356.2,604.1z"/>
		<path class="st1" d="M411.2,602.4l3.5,17.3l29-5.9l1.3,6.2l-39.3,8l-10.4-51.5l38.2-7.8l0.2,6.5l-26.8,5.4l3.1,15.4l19.8-4
			l0.2,6.5L411.2,602.4z"/>
		<path class="st1" d="M439.9,566.2l15.6-7.4c7.4-3.5,14.6-4.3,21.8-2.4c7.2,1.9,12.5,6.4,15.9,13.5c3.4,7.2,3.6,14.2,0.4,20.9
			c-3.1,6.8-8.3,11.9-15.6,15.3l-15.6,7.4L439.9,566.2z M458.2,564.6l-6.1,2.9l17.1,35.9l6.1-2.9c5-2.4,8.1-6,9.4-10.9
			c1.3-4.9,0.7-9.8-1.7-14.8c-2.4-5.1-5.9-8.6-10.5-10.7C467.9,562.1,463.2,562.2,458.2,564.6z"/>
		<path class="st1" d="M496.1,535.3l30.7,42.6l-8.5,6.1l-30.7-42.6L496.1,535.3z"/>
		<path class="st1" d="M564.8,543.3l-11.9-5l-16.4,16.5l5.1,11.9l-5.3,5.3l-21.9-52.4l6.3-6.4l52,22.1L564.8,543.3z M524.2,526.1
			l9.6,22.3l13-13l-22.3-9.5L524.2,526.1z"/>
	</g>
	<g>
		<path class="st1" d="M290.8,171.2l-9.6-24.7l-9.2,3.6l-1.3-3.4l24.1-9.3l0.7,3.6l-8.6,3.3l9.6,24.7L290.8,171.2z"/>
		<path class="st1" d="M312.4,149.5l2.4,9.8l16.5-4.1l0.9,3.5l-22.3,5.5l-7.2-29.2l21.7-5.4l0.2,3.7l-15.2,3.8l2.2,8.8l11.3-2.8
			l0.2,3.7L312.4,149.5z"/>
		<path class="st1" d="M333.6,135.2c-0.2-1.8,0.2-3.4,1.3-4.8c1.1-1.4,2.5-2.6,4.2-3.4c1.3-0.6,2.8-1,4.6-1.2c4.6-0.5,8.6,1,12,4.5
			l-1.7,1.9c-2.9-2.4-5.9-3.4-9-3.1c-1.5,0.2-2.8,0.7-3.8,1.7c-1,1-1.4,2.2-1.2,3.6c0.2,1.5,1.7,2.6,4.7,3.5
			c1.1,0.4,2.5,0.7,4.2,1.1c3.3,0.8,5.8,2.1,7.5,3.9c0.9,1,1.5,2.3,1.7,4c0.2,2-0.2,3.8-1.4,5.4c-1.2,1.6-2.7,2.9-4.7,3.8
			c-1.5,0.7-3.1,1.1-5.1,1.4c-2.5,0.3-5,0-7.4-0.9c-2.4-0.9-4.4-2.3-6-4.2l1.7-2.1c1.4,1.5,2.9,2.5,4.8,3.3c1.8,0.7,3.7,1,5.6,0.7
			c1.9-0.2,3.5-0.9,4.6-2c1.1-1.1,1.6-2.6,1.4-4.5c-0.1-0.7-0.4-1.2-1-1.7c-0.6-0.5-1.2-0.8-1.7-1c-0.5-0.2-1.2-0.4-2-0.6
			c-1.1-0.3-2.5-0.7-4.1-1.1c-2.6-0.7-4.7-1.6-6.4-2.8C334.8,139.1,333.8,137.4,333.6,135.2z"/>
		<path class="st1" d="M370.5,155.5l0.4-26.4l-9.9-0.2l0.1-3.7l25.8,0.4l-0.7,3.6l-9.2-0.1l-0.4,26.4L370.5,155.5z"/>
		<path class="st1" d="M399.9,126.9l-3,29.9l-6-0.6l3-29.9L399.9,126.9z"/>
		<path class="st1" d="M412.9,137.1l-4.5,21.2l-3.8-0.8l6.3-29.4l5.3,1.1l11.5,24.6l0.2,0l4.5-21.2l3.8,0.8l-6.3,29.4l-5.3-1.1
			l-11.5-24.6L412.9,137.1z"/>
		<path class="st1" d="M460.4,170.7l-0.2-0.1c-3.3,1.5-6.9,1.5-10.6,0.1c-4.3-1.6-7.3-4.4-9.2-8.4s-2-8.1-0.4-12.3
			c1.6-4.2,4.4-7.2,8.5-8.9c4.1-1.7,8.2-1.8,12.4-0.2c2.4,0.9,4.4,2.2,6,4c1.6,1.8,2.8,3.9,3.5,6.3l-2.5,1.1
			c-0.6-1.8-1.5-3.4-2.8-4.8c-1.3-1.4-2.8-2.4-4.5-3.1c-3.1-1.2-5.9-0.9-8.6,0.7c-2.7,1.6-4.7,4-5.8,7.1c-1.2,3.1-1.3,6.2-0.4,9.2
			c1,3,2.9,5.1,6,6.3c2.3,0.9,4.5,0.9,6.9,0.1l2.8-7.2l-6.6-2.5l1.3-3.4l12.3,4.7l-5.8,15.3l-2-0.8L460.4,170.7z"/>
	</g>
	<text transform="matrix(1 0 0 1 287.1224 729.4701)" class="st4 st5">00302</text>
</g>
</svg>
