<?xml version="1.0" encoding="utf-8"?>
<!-- Generator: Adobe Illustrator 28.3.0, SVG Export Plug-In . SVG Version: 6.00 Build 0)  -->
<svg version="1.1" xmlns="http://www.w3.org/2000/svg" xmlns:xlink="http://www.w3.org/1999/xlink" x="0px" y="0px"
	 viewBox="0 0 744 744" style="enable-background:new 0 0 744 744;" xml:space="preserve">
<style type="text/css">
	.st0{fill:#FFFFFF;}
	.st1{fill:#2B2B21;}
	.st2{fill:#EEBE80;}
	.st3{fill:#DE7E00;}
	.st4{fill:#0061AC;}
	.st5{fill-rule:evenodd;clip-rule:evenodd;fill:#0061AC;}
</style>
<g id="Cornice">
</g>
<g id="Pittogramma">
	<g>
		<polygon class="st4" points="368,95.6 374.6,95.6 374.6,146.7 368,146.7 368,95.6 		"/>
		<polygon class="st4" points="297.9,105.9 304.3,104.2 317.3,153.5 310.9,155.3 297.9,105.9 		"/>
		<polygon class="st4" points="321,100.4 327.5,99.2 331.9,124.8 325.4,126 321,100.4 		"/>
		<polygon class="st4" points="344.4,96.9 351,96.4 353.2,122.3 346.6,122.9 344.4,96.9 		"/>
		<polygon class="st4" points="232.9,134.4 238.6,131 263.6,175.3 257.9,178.6 232.9,134.4 		"/>
		<polygon class="st4" points="253.7,122.9 259.7,120.1 270.5,143.7 264.5,146.5 253.7,122.9 		"/>
		<polygon class="st4" points="275.5,113.4 281.7,111.1 290.4,135.6 284.2,137.9 275.5,113.4 		"/>
		<polygon class="st4" points="177.2,179 181.8,174.3 217.3,210.4 212.6,215.2 177.2,179 		"/>
		<polygon class="st4" points="194.4,162.5 199.5,158.2 215.9,178.1 210.8,182.4 194.4,162.5 		"/>
		<polygon class="st4" points="213,147.6 218.4,143.7 233.1,165 227.7,168.9 213,147.6 		"/>
		<polygon class="st4" points="134.8,236.9 138.1,231.1 181.4,256.6 178.2,262.4 134.8,236.9 		"/>
		<polygon class="st4" points="147.2,216.4 151,210.9 171.9,225.8 168.1,231.3 147.2,216.4 		"/>
		<polygon class="st4" points="161.4,197 165.6,191.9 185.2,208.6 181,213.7 161.4,197 		"/>
		<polygon class="st4" points="108.5,304 110.2,297.5 158.6,310.7 156.9,317.2 108.5,304 		"/>
		<polygon class="st4" points="115.3,280.8 117.6,274.5 141.5,283.4 139.3,289.7 115.3,280.8 		"/>
		<polygon class="st4" points="124.1,258.4 126.9,252.3 150,263.3 147.2,269.4 124.1,258.4 		"/>
		<polygon class="st4" points="100.1,375.7 100.1,369 159.8,369 159.8,375.7 100.1,375.7 		"/>
		<polygon class="st4" points="100.8,351.6 101.4,344.9 126.8,347.1 126.2,353.8 100.8,351.6 		"/>
		<polygon class="st4" points="103.6,327.6 104.8,321 129.9,325.5 128.7,332.1 103.6,327.6 		"/>
		<polygon class="st4" points="446.1,105.9 439.7,104.2 426.7,153.5 433.1,155.3 446.1,105.9 		"/>
		<polygon class="st4" points="423,100.4 416.5,99.2 412.1,124.8 418.6,126 423,100.4 		"/>
		<polygon class="st4" points="399.6,96.9 393,96.4 390.8,122.3 397.4,122.9 399.6,96.9 		"/>
		<polygon class="st4" points="511.1,134.4 505.4,131 480.4,175.3 486.1,178.6 511.1,134.4 		"/>
		<polygon class="st4" points="490.3,122.9 484.3,120.1 473.5,143.7 479.5,146.5 490.3,122.9 		"/>
		<polygon class="st4" points="468.5,113.4 462.3,111.1 453.6,135.6 459.8,137.9 468.5,113.4 		"/>
		<polygon class="st4" points="566.8,179 562.2,174.3 526.7,210.4 531.4,215.2 566.8,179 		"/>
		<polygon class="st4" points="549.6,162.5 544.5,158.2 528.1,178.1 533.2,182.4 549.6,162.5 		"/>
		<polygon class="st4" points="531,147.6 525.6,143.7 510.9,165 516.3,168.9 531,147.6 		"/>
		<polygon class="st4" points="609.2,236.9 605.9,231.1 562.6,256.6 565.8,262.4 609.2,236.9 		"/>
		<polygon class="st4" points="596.8,216.4 593,210.9 572.1,225.8 575.9,231.3 596.8,216.4 		"/>
		<polygon class="st4" points="582.6,197 578.3,191.9 558.8,208.6 563,213.7 582.6,197 		"/>
		<polygon class="st4" points="635.5,304 633.8,297.5 585.4,310.7 587.1,317.2 635.5,304 		"/>
		<polygon class="st4" points="628.7,280.8 626.4,274.5 602.5,283.4 604.7,289.7 628.7,280.8 		"/>
		<polygon class="st4" points="619.9,258.4 617.1,252.3 594,263.3 596.8,269.4 619.9,258.4 		"/>
		<polygon class="st4" points="643.9,375.7 643.9,369 592.4,369 592.4,375.7 643.9,375.7 		"/>
		<polygon class="st4" points="643.2,351.6 642.6,344.9 617.2,347.1 617.8,353.8 643.2,351.6 		"/>
		<polygon class="st4" points="640.4,327.6 639.2,321 614.1,325.5 615.3,332.1 640.4,327.6 		"/>
		<polygon class="st4" points="368,648.4 374.6,648.4 374.6,597.3 368,597.3 368,648.4 		"/>
		<polygon class="st4" points="297.9,638.1 304.3,639.8 317.3,590.5 310.9,588.7 297.9,638.1 		"/>
		<polygon class="st4" points="321,643.6 327.5,644.8 331.9,619.2 325.4,618 321,643.6 		"/>
		<polygon class="st4" points="344.4,647.1 351,647.6 353.2,621.7 346.6,621.1 344.4,647.1 		"/>
		<polygon class="st4" points="232.9,609.6 238.6,613 263.6,568.7 257.9,565.4 232.9,609.6 		"/>
		<polygon class="st4" points="253.7,621.1 259.7,623.9 270.5,600.3 264.5,597.5 253.7,621.1 		"/>
		<polygon class="st4" points="275.5,630.6 281.7,632.9 290.4,608.4 284.2,606.1 275.5,630.6 		"/>
		<polygon class="st4" points="177.2,565 181.8,569.7 217.3,533.6 212.6,528.8 177.2,565 		"/>
		<polygon class="st4" points="194.4,581.5 199.5,585.8 215.9,565.9 210.8,561.6 194.4,581.5 		"/>
		<polygon class="st4" points="213,596.4 218.4,600.3 233.1,579 227.7,575.1 213,596.4 		"/>
		<polygon class="st4" points="134.8,507.1 138.1,512.9 181.4,487.4 178.2,481.6 134.8,507.1 		"/>
		<polygon class="st4" points="147.2,527.6 151,533.1 171.9,518.2 168.1,512.7 147.2,527.6 		"/>
		<polygon class="st4" points="161.4,547 165.6,552.1 185.2,535.4 181,530.3 161.4,547 		"/>
		<polygon class="st4" points="108.5,440 110.2,446.5 158.6,433.3 156.9,426.8 108.5,440 		"/>
		<polygon class="st4" points="115.3,463.2 117.6,469.5 141.5,460.6 139.3,454.3 115.3,463.2 		"/>
		<polygon class="st4" points="124.1,485.6 126.9,491.7 150,480.7 147.2,474.6 124.1,485.6 		"/>
		<polygon class="st4" points="100.8,392.4 101.4,399.1 126.8,396.9 126.2,390.2 100.8,392.4 		"/>
		<polygon class="st4" points="103.6,416.4 104.8,423 129.9,418.5 128.7,411.9 103.6,416.4 		"/>
		<polygon class="st4" points="446.1,638.1 439.7,639.8 426.7,590.5 433.1,588.7 446.1,638.1 		"/>
		<polygon class="st4" points="423,643.6 416.5,644.8 412.1,619.2 418.6,618 423,643.6 		"/>
		<polygon class="st4" points="399.6,647.1 393,647.6 390.8,621.7 397.4,621.1 399.6,647.1 		"/>
		<polygon class="st4" points="511.1,609.6 505.4,613 480.4,568.7 486.1,565.4 511.1,609.6 		"/>
		<polygon class="st4" points="490.3,621.1 484.3,623.9 473.5,600.3 479.5,597.5 490.3,621.1 		"/>
		<polygon class="st4" points="468.5,630.6 462.3,632.9 453.6,608.4 459.8,606.1 468.5,630.6 		"/>
		<polygon class="st4" points="566.8,565 562.2,569.7 526.7,533.6 531.4,528.8 566.8,565 		"/>
		<polygon class="st4" points="549.6,581.5 544.5,585.8 528.1,565.9 533.2,561.6 549.6,581.5 		"/>
		<polygon class="st4" points="531,596.4 525.6,600.3 510.9,579 516.3,575.1 531,596.4 		"/>
		<polygon class="st4" points="609.2,507.1 605.9,512.9 562.6,487.4 565.8,481.6 609.2,507.1 		"/>
		<polygon class="st4" points="596.8,527.6 593,533.1 572.1,518.2 575.9,512.7 596.8,527.6 		"/>
		<polygon class="st4" points="582.6,547 578.3,552.1 558.8,535.4 563,530.3 582.6,547 		"/>
		<polygon class="st4" points="635.5,440 633.8,446.5 585.4,433.3 587.1,426.8 635.5,440 		"/>
		<polygon class="st4" points="628.7,463.2 626.4,469.5 602.5,460.6 604.7,454.3 628.7,463.2 		"/>
		<polygon class="st4" points="619.9,485.6 617.1,491.7 594,480.7 596.8,474.6 619.9,485.6 		"/>
		<polygon class="st4" points="643.2,392.4 642.6,399.1 617.2,396.9 617.8,390.2 643.2,392.4 		"/>
		<polygon class="st4" points="640.4,416.4 639.2,423 614.1,418.5 615.3,411.9 640.4,416.4 		"/>
		<polygon class="st4" points="170.3,375.7 170.3,369 578.3,369 578.3,375.7 170.3,375.7 		"/>
		<path class="st4" d="M314,166.9c2.1-0.6,4.2-1.2,6.3-1.8c7.6,22.4,27.9,38.3,51.7,38.3c23.7,0,44-15.9,51.7-38.3
			c2.1,0.5,4.2,1.1,6.3,1.8c-8.4,25.1-31.1,43.2-58,43.2C345.1,210.2,322.4,192.1,314,166.9L314,166.9z M265.1,188.6
			c1.9-1.1,3.8-2.3,5.7-3.3c21.9,35.2,59.1,58.3,101.3,58.3s79.3-23.1,101.3-58.3c1.9,1.1,3.8,2.2,5.7,3.3
			c-23,37.2-62.3,61.7-106.9,61.7C327.3,250.3,288.1,225.7,265.1,188.6L265.1,188.6z M221.4,223.9c1.5-1.6,3.1-3.2,4.6-4.7
			c37.3,38.1,88.9,61.7,146,61.7c57,0,108.7-23.6,146-61.7c1.6,1.6,3.1,3.1,4.6,4.7c-38.5,39.3-91.7,63.7-150.6,63.7
			C313.2,287.6,259.9,263.3,221.4,223.9L221.4,223.9z M188.7,269.1c1.1-1.9,2.1-3.9,3.2-5.8c48.3,30.6,111.1,49.1,180,49.1
			c69,0,131.7-18.5,180-49.1c1.1,1.9,2.2,3.8,3.2,5.8c-49.6,31.3-113.7,50-183.3,50C302.4,319.1,238.4,300.4,188.7,269.1
			L188.7,269.1z M320.3,340c16.9,1.1,34.2,1.7,51.7,1.7c73.3,0,141.8-10,201.5-27.6c0.6,2.1,1.1,4.3,1.6,6.4
			c-60.6,17.8-129.9,27.9-203.1,27.9c-14.4,0-28.6-0.4-42.7-1.1C328.2,344.1,324.8,341.5,320.3,340L320.3,340z M168.9,320.5
			c0.5-2.1,1.1-4.3,1.6-6.4c41.4,12.2,87.1,20.8,135.7,24.9c-5.1,0.8-9.4,2.9-11.8,5.6C249.9,340.1,207.6,331.9,168.9,320.5
			L168.9,320.5z"/>
		<path class="st4" d="M314,577.1c2.1,0.6,4.2,1.2,6.3,1.8c7.6-22.4,27.9-38.3,51.7-38.3c23.7,0,44,15.9,51.7,38.3
			c2.1-0.6,4.2-1.1,6.3-1.8c-8.4-25.1-31.1-43.2-58-43.2C345.1,533.8,322.4,551.9,314,577.1L314,577.1z M265.1,555.4
			c1.9,1.1,3.8,2.3,5.7,3.3c21.9-35.2,59.1-58.3,101.3-58.3s79.3,23.1,101.3,58.3c1.9-1.1,3.8-2.2,5.7-3.3
			c-23-37.2-62.3-61.7-106.9-61.7C327.3,493.7,288.1,518.3,265.1,555.4L265.1,555.4z M221.4,520.1c1.5,1.6,3.1,3.2,4.6,4.7
			c37.3-38.1,88.9-61.7,146-61.7c57,0,108.7,23.6,146,61.7c1.6-1.6,3.1-3.1,4.6-4.7c-38.5-39.3-91.7-63.7-150.6-63.7
			C313.2,456.4,259.9,480.7,221.4,520.1L221.4,520.1z M188.7,474.9c1.1,1.9,2.1,3.9,3.2,5.8c48.3-30.6,111.1-49.1,180-49.1
			c69,0,131.7,18.5,180,49.1c1.1-1.9,2.2-3.8,3.2-5.8c-49.6-31.3-113.7-50-183.3-50C302.4,424.9,238.4,443.6,188.7,474.9
			L188.7,474.9z M168.9,423.5c0.5,2.1,1.1,4.3,1.6,6.4c59.7-17.6,128.2-27.6,201.5-27.6c73.3,0,141.8,10,201.5,27.6
			c0.6-2.1,1.1-4.3,1.6-6.4c-60.6-17.8-129.9-27.9-203.1-27.9C298.8,395.6,229.5,405.7,168.9,423.5L168.9,423.5z"/>
		<polygon class="st4" points="361.3,363.6 389.3,363.6 389.3,382.3 361.3,382.3 361.3,363.6 		"/>
		<path class="st5" d="M434.9,417L419,347.1V417h-14.4v-92.2h24.1l13.2,61.1l13.2-61.1h24.1V417h-14.4v-69.9L449,417H434.9
			L434.9,417z M587.2,324.8h17.9l29.8,92.2h-17l-6.3-20.7h-30.8l-6.3,20.7h-17L587.2,324.8L587.2,324.8z M596.2,346.3l-10.6,34.5
			h21.2L596.2,346.3L596.2,346.3z M502.6,364.6h16.1c11.1,0,17.2-4.9,17.2-12.6c0-7.2-5.1-11.8-15.9-11.8h-17.4V364.6L502.6,364.6z
			 M512.9,324.8c19.3,0,38.5,3.7,38.5,27.5c0,13-6.9,20.8-18.7,22.8l-4.2,0.1c2,0.9,3.6,1.9,5.6,3.6c5,4.2,7.1,7.7,9.9,13.2l12.5,25
			h-17.6l-11.8-24.2c-2.1-4.1-4.6-7.1-7.1-9.6c-2.8-2.8-6.7-5.2-11.6-5.2h-5.7v39h-14.9v-92.2H512.9L512.9,324.8z"/>
		<path class="st5" d="M120.5,328.2H144v87.3h-23.4V328.2L120.5,328.2z M144,316.1h-23.4v-22.7H144V316.1L144,316.1z M176.5,415.5
			h-23.1v-122h23.1V415.5L176.5,415.5z M237.7,371.5c-1.5,0.9-3.1,1.6-4.7,2.2c-1.5,0.5-3.7,1-6.4,1.5l-5.5,0.9
			c-5.2,0.8-8.9,1.9-11.1,3.1c-3.8,2.1-5.7,5.2-5.7,9.6c0,3.9,1.1,6.6,3.4,8.4c2.3,1.7,5.2,2.5,8.5,2.5c5.3,0,10.1-1.4,14.5-4.3
			c4.5-2.8,6.8-8,7-15.6V371.5L237.7,371.5z M233.7,345.5c-3.8-2.4-6.2-2.9-11.1-2.9c-5.5,0-9.3,0.7-12.6,3.6
			c-1.7,1.6-3.5,4.3-4.3,7.3l-20.8-3.7c0.9-5.2,3-9,6.9-13.6c6.5-7.7,17.2-11.5,32.1-11.5c9.7,0,17.9,1.8,25.3,5.5
			c7.4,3.6,11,10.5,11,20.7v42.7c0,2.7,0.1,5.9,0.2,9.7c0.2,2.9,0.1,4.4,1.3,6.8c0.5,1,0.9,1.6,1.6,2.5l-22.5,0
			c-0.7-1.7-1.2-3.4-1.5-4.9c-0.3-1.5-0.5-3.2-0.6-5.2c-3.2,3.4-6.9,6.2-11,8.6c-5,2.8-10.6,4.2-16.9,4.2c-8.1,0-14.6-2.2-19.8-6.6
			c-5.2-4.5-8.7-10.9-8.1-19.1c0.7-9.9,4.4-15.8,12.7-20.5c4.6-2.6,9-4.4,17.7-6.4c9.1-2.1,20.9-4.4,24.6-6.5
			C237.7,356,239.2,349,233.7,345.5L233.7,345.5z M326.4,357.8c-0.3-2.5-1.7-6-4.2-9c-3.2-3.8-6.7-5.2-12.2-5.2
			c-7.9,0-14.4,3.8-17.3,11.2c-1.5,4-2.3,9.3-2.3,15.9c0,6.3,0.8,11.4,2.3,15.2c2.8,7.1,9.2,10.7,16.9,10.7c4.6,0,7.9-1.3,11.4-4.5
			c3.5-3.2,4.7-8.3,5.3-10.9l22.5,3.2c-1,5.7-3.4,11.1-7.3,16.3c-7.3,9.8-18.2,14.7-32.5,14.7c-14.4,0-24.9-4.1-31.7-12.3
			c-6.8-8.2-10.2-18.8-10.2-31.9c0-14.7,3.7-26.2,11.2-34.4c7.5-8.2,17.8-12.3,31-12.3c11.2,0,20.3,2.4,27.4,7.2
			c6.1,4.1,10.1,10.9,11.9,20.5L326.4,357.8L326.4,357.8z"/>
	</g>
</g>
<g id="Testi">
</g>
</svg>
