<svg id="Layer_1" data-name="Layer 1" xmlns="http://www.w3.org/2000/svg" viewBox="0 0 57.53 84.69">
  <defs>
    <style>.cls-1{fill:#ff004f;}</style>
  </defs>
  <path class="cls-1" d="M203.68,128.86" transform="translate(-93.78 -60.19)" />
  <circle class="cls-1" cx="15.1" cy="44.23" r="4.81" />
  <circle class="cls-1" cx="18.85" cy="52.91" r="4.81" />
  <circle class="cls-1" cx="28.47" cy="52.53" r="4.81" />
  <circle class="cls-1" cx="38.09" cy="52.91" r="4.81" />
  <circle class="cls-1" cx="41.8" cy="44.86" r="4.81" />
  <circle class="cls-1" cx="23.66" cy="60.73" r="4.81" />
  <circle class="cls-1" cx="33.28" cy="60.73" r="4.81" />
  <circle class="cls-1" cx="28.47" cy="68.91" r="4.81" />
  <path class="cls-1"
    d="M115.51,92.76a30.2,30.2,0,0,1-1.31,3.58,21.09,21.09,0,0,1-4.34.57c-5.68,0-8.58-3.77-8.58-7.93,0-4.84,3.68-8.19,9-8.19a24.05,24.05,0,0,1,4.49.55c.1,1.07.26,2.49.45,3.68l-.73.17c-.48-1.59-1-2.57-2.26-3.07a6.59,6.59,0,0,0-2.49-.45c-3.92,0-6,2.9-6,6.82,0,4.58,2.38,7.52,6.22,7.52,2.43,0,3.61-1.11,4.82-3.49Z"
    transform="translate(-93.78 -60.19)" />
  <path class="cls-1"
    d="M144.36,95c-.46-1.17-5.16-14.49-5.16-14.49l-4.27,6.34-3.29-6.34-4.78,8.36h-10v.66c1.78.17,2,.29,2,2.4v9.38c0,1.94-.17,2.16-2.38,2.32v.67H128.1c.24-.71.88-3.16,1-3.78l-.71-.19a10,10,0,0,1-1.28,2.19c-.52.61-.76.83-2.21.83h-2.21c-1.19,0-1.71-.17-1.71-1.83l0-5,4.14,0c1.71,0,1.9.24,2.21,2h.74V93.66h-.74c-.28,1.61-.4,2-2.18,2l-4.17,0,0-5c0-.69,0-.76.79-.76H125c1.43,0,2,.16,2.35,1a7.56,7.56,0,0,1,.71,1.8l.72-.12c-.1-1.26-.19-3-.22-3.63l2.63-4,3.46,5.88L138.18,85l3.68,9.44s.57,1.38-.31,1.48h-.83v.54h5.17v-.55A1.29,1.29,0,0,1,144.36,95Z"
    transform="translate(-93.78 -60.19)" />
  <path class="cls-1"
    d="M122.55,144.88c-15.86,0-28.77-19-28.77-42.35s12.91-42.34,28.77-42.34,28.77,19,28.77,42.34S138.41,144.88,122.55,144.88Zm0-82.29c-14.54,0-26.37,17.92-26.37,39.94s11.83,39.95,26.37,39.95,26.37-17.92,26.37-39.95S137.09,62.59,122.55,62.59Z"
    transform="translate(-93.78 -60.19)" />
</svg>