<?xml version="1.0" encoding="utf-8"?>
<!-- Generator: Adobe Illustrator 27.7.0, SVG Export Plug-In . SVG Version: 6.00 Build 0)  -->
<svg version="1.1" id="Layer_1" xmlns="http://www.w3.org/2000/svg" xmlns:xlink="http://www.w3.org/1999/xlink" x="0px" y="0px"
	 viewBox="0 0 361.2 228.2" style="enable-background:new 0 0 361.2 228.2;" xml:space="preserve">
<style type="text/css">
	.st0{fill-rule:evenodd;clip-rule:evenodd;fill:#697177;}
	.st1{fill:#FFFFFF;}
	.st2{fill:#DD001C;}
	.st3{fill:#005B26;}
	.st4{fill:#00003A;}
</style>
<g>
	<path class="st0" d="M160,54c-0.4,0.6-0.6,0.6-1.1,0.3l0.3-0.4l0.5-0.8c0.1-0.3,0.1-0.3,0.4-0.1c0.3,0.2,0.3,0.5,0.1,0.9
		C160,53.9,160,53.9,160,54 M160.6,54.4c0.1-0.2,0.2-0.4,0.2-0.6c0.1-0.6-0.2-0.9-0.6-1.1l-0.6-0.4c-0.2-0.1-0.4-0.3-0.6-0.4
		l-0.1,0.2c0.4,0.2,0.2,0.5-0.1,0.9l-0.5,0.8l-0.7,1.1c-0.3,0.4-0.4,0.7-0.8,0.5l-0.1,0.1l1.4,0.9l0.1-0.2c-0.4-0.3-0.3-0.5,0.1-1
		l0.5-0.8l0.4,0.2C159.5,55.1,160.2,55.2,160.6,54.4"/>
	<path class="st0" d="M167,20.4c0.7-1,1.4-1.9,2.3-2.6c2.1-2,4.6-3.4,7.4-4.3l-0.4,4.3l-0.3,4.7c0,0.1-0.1,0.1-0.3,0.1L167,20.4
		L167,20.4z M166.4,20.5c0,0.3,0.2,0.6,0.6,0.6l8.7,2.1c0.1,0,0.2,0.1,0.4,0c0.4-0.1,0.6-0.4,0.6-0.8l0.4-4.7l0.4-4.3
		c0-0.2-0.1-0.4-0.4-0.6c-0.1-0.1-0.4-0.1-0.6-0.1c-3.1,1-5.8,2.6-8,4.9c-0.7,0.7-1.4,1.4-1.9,2.3C166.4,20.2,166.4,20.3,166.4,20.5
		"/>
	<path class="st0" d="M169.4,64.2c-0.3-0.1-0.4,0.2-0.6,0.4c0.4,0.1,0.6,0.2,1.1,0.1c0.7-0.6,1.2-1.6,2.1-2v-0.2
		c-0.4,0-0.6,0.2-1,0.4C170.7,63.3,170.3,64.4,169.4,64.2"/>
	<path class="st0" d="M164.3,57.4l0.2-0.6l0.4-0.9c0-0.1,0.1-0.1,0.2,0c0.4,0.1,0.4,0.5,0.1,0.9c-0.1,0.1-0.1,0.2-0.2,0.3
		C164.8,57.5,164.6,57.5,164.3,57.4 M163.6,59.4c-0.3-0.1-0.2-0.5-0.1-0.9c0.1,0,0.1-0.1,0.1-0.1l0.4-0.9l0.2,0.1
		c0.4,0.2,0.5,0.6,0.2,1.2c-0.1,0.1-0.1,0.2-0.2,0.3C164.1,59.4,163.8,59.5,163.6,59.4 M165.3,55.7l-1.3-0.6l-0.1,0.2
		c0.4,0.1,0.3,0.4,0.1,0.9l-0.1,0.1l-0.9,1.9v0.1c-0.3,0.5-0.4,0.8-0.8,0.6l-0.1,0.2l1.1,0.6c0.4,0.2,1.1,0.5,1.6,0.1
		c0.1-0.1,0.2-0.3,0.3-0.4c0.4-0.8-0.1-1.3-0.4-1.5c0.2,0,0.6,0.1,0.9-0.1c0.1-0.1,0.2-0.2,0.4-0.4
		C166.3,56.4,165.8,55.9,165.3,55.7"/>
	<path class="st0" d="M168.3,59.2c-0.3,0.1-0.4-0.2-0.5-0.6c0-0.1,0-0.1-0.1-0.2l-0.1-0.9l0.2-0.1c0.4-0.1,0.7,0.2,0.9,0.9v0.4
		C168.6,58.9,168.5,59.2,168.3,59.2 M167.2,55.7c-0.1-0.1,0.1-0.1,0.1-0.1c0.4-0.1,0.6,0.1,0.7,0.7v0.3c0,0.4-0.1,0.6-0.5,0.6
		l-0.1-0.6L167.2,55.7z M168.1,57.2c0.2-0.1,0.5-0.3,0.6-0.6c0-0.1,0.1-0.3,0-0.5c-0.1-0.9-0.9-0.9-1.4-0.9l-1.4,0.3v0.3
		c0.5-0.1,0.5,0.1,0.6,0.7v0.1l0.4,2.1v0.1c0.1,0.5,0.1,0.9-0.3,0.9l0.1,0.2l1.3-0.3c0.5-0.1,1.1-0.3,1.3-0.9v-0.5
		C169.2,57.3,168.6,57.2,168.1,57.2"/>
	<path class="st0" d="M163.8,55.2l0.1-0.1l-1-0.6l-0.1,0.2c0.1,0.1,0.4,0.2,0.1,0.5c-0.1,0.2-0.5,0.6-0.7,0.7l-1.2,1.1l0.7-2.2
		c0-0.1,0.1-0.3,0.1-0.4c0.1-0.2,0.4-0.1,0.5,0l0.1-0.2l-1.4-0.9l-0.1,0.1c0.3,0.3,0.3,0.4,0.1,0.9l-1.1,3.5l0.1,0.1l2.8-2.4
		C163.3,55.2,163.5,55,163.8,55.2"/>
	<path class="st0" d="M157.2,54.5l-0.2-0.1c-0.5,0.6-0.8,0.7-1.2,0.4c-0.5-0.3-0.2-0.6,0.1-1.1l0.4-0.7c0.4,0.3,0.4,0.4,0.1,1
		l0.2,0.1l0.9-1.5l-0.1-0.1c-0.4,0.5-0.6,0.5-0.9,0.3l0.6-1.1c0.1-0.1,0.2-0.3,0.2-0.3c0.1-0.1,0.4,0.1,0.4,0.1
		c0.4,0.2,0.4,0.5,0.2,1.1l0.1,0.1l0.6-1l-2.1-1.3l-0.1,0.1c0.4,0.2,0.2,0.5-0.1,1l-1.2,1.9c-0.3,0.5-0.4,0.8-0.9,0.5l-0.1,0.2
		l2.3,1.4l0.3-0.4L157.2,54.5z"/>
	<path class="st0" d="M172,57.5c0,0.8-0.1,1-0.7,1.1c-0.5,0.1-0.6-0.3-0.7-1l-0.4-1.9c-0.1-0.6-0.1-0.9,0.3-0.9v-0.2l-1.6,0.3v0.2
		c0.4-0.1,0.5,0.2,0.6,0.8l0.4,2.2c0.1,0.5,0.1,0.9-0.3,0.9l0.1,0.3l2.7-0.6l-0.2-1.2H172z"/>
	<path class="st0" d="M178.3,56.1l0.1-0.5l0.1-1.1l0.4,1.1l0.1,0.4L178.3,56.1z M180.1,56.6l-0.4-1l-0.9-2.3h-0.2l-0.4,2.3l-0.2,0.9
		c-0.1,0.4-0.1,1.1-0.6,1.1l0.1,0.2l1.1-0.1v-0.3c-0.1,0-0.4,0-0.4-0.3l0.1-0.8l1.1-0.1l0.3,0.8c0,0.3-0.3,0.3-0.4,0.4l0.1,0.2
		l1.2-0.1l0.4-0.1v-0.2c-0.1,0-0.3-0.1-0.4-0.1C180.3,57.1,180.2,56.8,180.1,56.6"/>
	<path class="st0" d="M180.4,16.2L180.4,16.2l2.6,8.5h8.8l-7.3,4.9l2.9,8.5l-7-5.4l-7.1,5.4l3-8.5l-7.3-4.9h8.8L180.4,16.2z
		 M166.5,24l8.9,6l-3.6,10.4l8.6-6.6l8.6,6.6L185.4,30l8.9-6h-10.8l-3.1-10.5L177.3,24H166.5z"/>
	<path class="st0" d="M176.7,56.4c0,0.7-0.1,1.4-0.7,1.4c-0.7,0.1-1.1-0.9-1.2-1.8c-0.1-0.9-0.1-2,0.6-2.1c0.5-0.1,0.9,0.4,1,1
		l0.2-0.1l-0.2-1.4h-0.2V54c-0.3-0.3-0.6-0.4-0.9-0.3c-0.9,0.1-1.5,1.2-1.3,2.6c0.2,1.3,0.9,2.1,1.9,1.9c0.4-0.1,0.7-0.3,0.9-0.6
		l0.1,0.4h0.2l-0.2-1.5H176.7z"/>
	<path class="st0" d="M173.8,57.4l-0.4-2.2c-0.1-0.5-0.1-0.9,0.3-0.9l-0.1-0.2l-1.6,0.3l0.1,0.3c0.4-0.1,0.5,0.2,0.6,0.7l0.4,2.2
		c0.1,0.5,0.1,0.9-0.3,0.9l0.1,0.2l1.6-0.3l-0.1-0.2C173.9,58.2,173.8,57.9,173.8,57.4"/>
	<path class="st0" d="M183.8,13.2c2.6,0.9,5.1,2.3,7.1,4.2c0.9,0.9,1.6,1.9,2.4,2.9l-8.7,2.2c-0.1,0-0.2-0.1-0.3-0.2l-0.4-4.8
		l-0.3-4.3H183.8l-0.1,9.1c0,0.1,0,0.2,0.1,0.4c0.1,0.4,0.6,0.5,0.9,0.4l8.8-2.1c0.2-0.1,0.4-0.3,0.4-0.5c0.1-0.2,0.1-0.4-0.1-0.6
		c-0.6-0.9-1.3-1.6-2-2.4c-2.2-2.2-4.9-3.9-7.9-4.8c-0.1-0.1-0.4-0.1-0.5,0c-0.4,0.1-0.5,0.4-0.4,0.7l0.3,4.1l0.4,4.8L183.8,13.2z"
		/>
	<path class="st0" d="M180.4,43.4c-2.1,0-4.1-0.4-6.1-1.1l5.9-6.8c0.1,0,0.1,0,0.1-0.1c0.1,0,0.1,0.1,0.2,0.1l5.8,7.1
		C184.5,43.2,182.5,43.4,180.4,43.4 M181.1,35.1c-0.1-0.1-0.1-0.1-0.3-0.2c-0.1-0.1-0.3-0.1-0.4-0.1c-0.3,0-0.4,0.1-0.6,0.3
		l-5.9,6.8c-0.4,0.6,0.1,1,0.4,1.1c2,0.7,4.1,1.1,6.2,1.1c2.1,0,4.1-0.3,6.1-0.9c0.1-0.1,0.9-0.5,0.4-1.1L181.1,35.1z"/>
	<path class="st0" d="M199.7,56.7l-0.2-0.9l-0.2-0.6l0.6,0.6l0.5,0.4L199.7,56.7z M202,56.8c-0.1-0.1-0.4-0.3-0.5-0.4l-0.6-0.5
		l-2.1-1.9l-0.2,0.1l0.5,1.7l0.4,1.4c0.1,0.4,0.4,1.1,0,1.3l0.1,0.2l0.9-0.6l-0.1-0.1c-0.1,0.1-0.4,0.1-0.5-0.1l-0.3-0.7l0.9-0.6
		l0.6,0.6c0.1,0.2-0.1,0.4-0.1,0.4l0.1,0.2l1.4-0.9l-0.1-0.2C202.3,56.8,202.2,56.9,202,56.8"/>
	<path class="st0" d="M201.6,11.5c-0.1,0.3,0.1,0.5,0.1,0.8c0.1,0.2,0.2,0.4,0.4,0.4c0-0.3-0.1-0.4-0.1-0.6
		C201.8,11.9,201.9,11.5,201.6,11.5"/>
	<path class="st0" d="M186.5,53.9c0.4,0.1,0.4,0.4,0.2,0.9l-0.5,2.1c-0.1,0.6-0.1,0.9-0.6,0.8l-0.1,0.2l1.6,0.4v-0.3
		c-0.4-0.1-0.4-0.4-0.2-0.9l0.5-2.2c0.1-0.5,0.1-0.9,0.6-0.7V54l-1.5-0.3L186.5,53.9z"/>
	<path class="st0" d="M203.2,51.7c-0.1-0.2,0.1-0.3,0.1-0.4l-0.1-0.2l-0.9,0.6l0.1,0.2c0.4-0.2,0.7,0.2,1,0.6l1,1.5l-3.3-1.5
		l-0.8,0.6l0.1,0.2c0.2-0.1,0.4-0.1,0.6,0.1l1.5,2.2c0.3,0.4,0.4,0.6,0.1,0.9l0.1,0.2l0.9-0.6l-0.1-0.2c-0.4,0.3-0.6-0.2-0.9-0.6
		l-1.1-1.7l3.6,1.6l0.2-0.1l-1.8-2.6C203.5,52.3,203.2,51.9,203.2,51.7"/>
	<path class="st0" d="M197.8,43.9c0.2-0.4,0.6-0.7,0.9-1.1c0,0.4-0.1,0.8-0.4,1.1c-0.1,0.2-0.3,0.4-0.4,0.5c-0.1,0-0.1-0.1-0.1-0.1
		C197.7,44.2,197.8,44,197.8,43.9 M201.3,40.9c-0.1,0.3-0.3,0.6-0.6,0.8c-0.1,0-0.1-0.4-0.1-0.8c0-0.6,0.1-1.4,0.5-1.4
		C201.5,40.2,201.3,40.9,201.3,40.9 M201.6,42.7c-0.1-0.6,0.1-1.1,0.4-1.6v-0.2c0-0.1,0-0.1,0.1-0.2c0.1,0,0.1,0.1,0.1,0.2v0.1
		C202.5,41.7,202,42.4,201.6,42.7 M203.3,43.2c-0.4,0.4-0.9,0.8-0.9,1.4c0,0.1-0.3,0.3-0.6,0.2c-0.2,0-0.3-0.4-0.6-0.3
		c-0.2,0.6-0.9,0.4-1.4,0.9c-0.9,0.9-1-0.4-1.1-0.3c-0.6,0.6-1.1,1.4-1.6,2.1c-0.4,0.4-0.6,1.3-0.7,1.4c-0.1,0.1-0.3,0.3-0.3,0.3
		c-0.1,0.2-0.1,0.4-0.4,0.4c-0.2,0-0.2-0.4-0.5-0.1c-0.1,0.4-0.4,0-0.6,0.1c-0.2,0.4-1.3,1.6-2.1,1.6c-0.1,0.1-0.4,0.1-0.6-0.1
		c-0.4-0.2-0.9,0.9-1.2,1c-0.1,0.1,0,0.1,0.1,0.1h0.4c0,0.3-0.4,0.6-0.8,0.9c0,0-0.4,0.2-0.7,0.4c0,0-1.1,0-2.2-0.4v-0.4l1.2-0.7
		c0.1,0.4,0.3,0.5,0.6,0.7c0.2,0.1,0.3,0,0.4-0.1c0.1-0.5-1.1-0.6-0.2-1.2c0.5-0.4,0.5-0.1,1.3-0.2c0.6-0.1,1.1-0.4,1.6-0.8
		c0,0,0.6-0.3,1.8-2.3c0,0,0.6-1,5-8.9c0,0,1.1-1,2.6-4.8c0.1-0.3,0.2,0.3,0.4,0.2c0.4-0.4-0.1-0.7-0.4-1.1
		c-0.1-0.5-0.3-1.1-0.1-1.7c0.1-0.1,0.4-0.1,0.4,0.3c0.1,0.4,0.1,0.9,0.3,1.3c0.7,0,1-4.1,1.1-4.9v-0.1c-0.4-0.5-1.4-0.7-1.3-1.1
		c0.7-0.2-0.4-1.6-0.4-1.1c0,0.1,0.1,0.4,0,0.5c-1.1,0.1-0.9-1.1-1.2-1.4c-0.2-0.3-0.8,0-0.9-0.5c0-0.3-0.1-0.6-0.4-0.7
		c-0.3-0.1-0.7,0.2-0.7-0.5c0-0.6,1.4,0.7,1-0.4c-0.5-1.1-1.5-0.4-1.6-0.6c-0.4-0.6-1.4-2.1-1.4-2.9c0.1-0.4,0.6,0.4,0.6-0.1
		c0-0.4-0.6-1-0.7-0.9c-0.6,0.3-0.9-0.4-0.9-0.7c-0.1-0.1-0.1-0.4,0-0.8c-0.1-0.3-0.6-0.3-0.6-0.6c-0.1-0.1-0.2-0.4,0-0.6
		c1.6-0.5,0-1.1,0.4-1.6c0.3-0.3,1,0.2,1.4-0.4c0.4-0.4,0.4-0.2,0.6,0c0.5,0.4-0.2,1.4,0.6,1.4c0.2,0,0.5-0.6,0.9-0.2
		c0.5,0.5,0.4,0.9,0.6,1.6c0.4,1-0.3,1.2-0.4,1.3c-0.1,0.1-0.1,0.2-0.1,0.4c-0.1,0.2-0.1,0.5,0.1,0.7c0.3-0.1,0.6-0.4,0.7-0.6
		c0.1-0.1,0.2-0.1,0.4-0.1c0.1,0.2,0,0.6,0.1,0.9c1.1,1.2,0,1.9,0,1.9c-0.1-0.4,0-0.8-0.4-1c-0.2,0.5,0.2,1.2-0.1,1.7
		c0,0-0.1-0.9-2.1-3.4c0-0.4-0.1-1.1-0.1-1.6c-0.1,0-0.1-0.1-0.2-0.1c-0.1,0-0.1,0.2-0.2,0.1c-0.4-0.7-0.5-1.5-0.9-2.2l-0.1,0.2
		c0.3,1,0.7,1.9,1,2.9h-0.1l-0.7-0.8c-0.1,0-0.1,0-0.1,0.1c0.1,0.6,0.8,1.1,1.2,1.5l1.6,2.3c-0.3-0.1-0.6-0.4-1-0.4
		c-0.1,0.1-0.1,0.1,0,0.2c1.1,0.6,2.1,1.9,2.4,3.1c-0.1,0.1-0.4-0.2-0.4,0.1c0.1,0.3,0.8,0.9,1.3,1v-0.4c-0.4-1-1.1-1.9-1-3.1
		c0.1,0.2,0.4,1.4,0.9,0.1c0.4-0.1,0.2,0.8,0.4,0.9c0.4,0.4,0.6,0.6,0.4,1.2c-0.1,0.3-0.3,0.4-0.2,1.1c0.2,0.4,1.1,0.3,0.8,0.9
		c-0.1,0.2-0.2,0.5-0.1,0.7c0.4,0.1,0.5,0.5,0.8,0.7c0.3-0.4-0.1-0.8-0.1-1.1c0.2-0.5-0.1-1-0.2-1.5c-0.4-0.1-0.1-0.5-0.1-0.8
		c0-0.1,0.1,0,0.1,0c-0.1,0.6,1,0.7,0.4,1.4c0.2,0.7,0.6,1.3,0.5,2.1c0.2,0.3,0.4-0.1,0.5-0.2c0.3-0.4,0.6-0.9,0.4-1.4
		c-0.2,0-0.4-0.3-0.5-0.3c0.1-0.5-0.4-0.7-0.4-1.1c0.1-0.1,0.3-0.1,0.4-0.2c0.1-0.9-1-1-1.1-1.8c0-0.6-0.6-0.8-0.8-1.3
		c0.3-0.2,1.1,0.1,0.8-0.6c-0.7-0.7-1.6-1.4-1.9-2.4c0-0.1-0.2-0.6,0-0.7c0.2,0,0.4-0.1,0.4-0.4c0-0.6-0.6-0.9-1-1.2
		c-0.4-0.6-0.4-1.2-0.7-1.8c0.3-0.6,0.5-1.4,0.8-2.1c-0.1-0.1-0.8-1.1,0.8-0.7c0.1,0.1,0.7-0.2,0.8-0.6c0.4,0.2,0.4,1.9,0.8,1.9
		c0.3-0.1,0.2-0.6,0.6-0.3c0,0,0,1.2,0.8,2c0,0.5-0.2,1.1,0.1,1.6c0,0,0.3,0.4,0.6-0.1c-0.1,2.1,0.5,2.3,0.6,2.4
		c-0.3,0.5-1.5,2.5-0.1,2.6c0.3,0,0-0.9,0.4-1.2c0.1-0.1,0.6,0.3,0.7,1.3c0.1,0.8-1.5,1.7-0.5,2.7c0.1-0.1,0.1-0.2,0.2-0.4
		c0.2,0.2,0.4,0.7,0.3,1c-0.7,0.3-0.6,1.1-0.6,1.7c-0.2,0.6-1.1,0.6-1,1.4c0.1,0.7-0.9,0.8-1.1,1.3c0,0.1-1.4,8.1-2.5,9
		c-0.4,0.3-1.4,2.4-2.3,3.4c-0.2,0.2-0.5,0-0.7,0.1c0.1,0.2,0.1,0.4,0.1,0.6c-0.1,0.4-0.9,1.7-1.3,1.9c-0.1,0.4-0.4,0.7-0.6,1.1
		c-0.2,0.4-1.5,2-1.5,2.9c-0.1,1.8,0.2,1.6,0.2,1.6c0.4-0.2,0.4-0.9,0.4-1.3c0.9-0.9,1.6-2,2.6-2.8c0.1-0.1,0.2-0.4,0.3-0.5
		c0.5-0.4,0.6-2.1,0.7-2.5c0.1,0.1,0.3,0,0.5,0c-0.1,0.7,0.4,1.4,0,2.1c-0.2-0.1-0.4-0.1-0.6,0.1c0.1,0.1,0.4,0.2,0.2,0.4
		c-0.1,0.2-0.4,0.4-0.4,0.6c0.1,0.4,0.3-0.1,0.5-0.1c0.4,0.2,0.6-0.4,1.1-0.1c0.4-0.6,1.3-1.1,1.4-1.8c0.5-0.4,0.5-1.1,0.8-1.6
		c0.1,0,0.1-0.1,0.1-0.1c0.5-0.4,0.8-1.1,1.5-1.2c0.1-0.1,0.1-0.2,0.1-0.3c-0.4-0.3-0.6,0.3-1,0.3c0.3-1,0.9-1.9,1-3
		c0.4-0.8,1-1.2,1.8-1.5c0.1-0.1,0.2-0.3,0.1-0.6c-0.4,0.4-0.9,0.4-1.3,0.7c-0.1-1.3,2.3-3.5,2.3-4.4c-0.1-0.1-0.1-0.1-0.2-0.1
		c-0.5,0.4-0.5,1.4-1.1,1.5c0.4-2.7,0.9-3.8,0.9-3.8c0-0.1-0.1-0.1-0.1-0.2c-0.5-0.2-0.9,3.6-1.1,3.6c-0.6-0.3-0.1-1.4-0.6-1.9
		c-0.1,0-0.2,0.1-0.2,0.2c0,0-0.3,0.7,0.3,1.9c-0.2,1.3-0.6,2.7-0.9,3.9l-0.1,0.1c-0.1-0.4-0.1-0.9-0.4-1.4
		c-0.1-0.4,0.1-0.9-0.1-1.1c-0.6,0.5-0.1,1.4,0,1.9c0.1,1.1-0.1,2.1-0.5,3.1c-0.1,0.2,0.1,0.4,0,0.6c-0.2,0.4-0.4,0.9-0.7,1.3
		c-0.9-0.8,0.1-2.8,0.1-3c0-0.6-0.5-0.4-0.6-0.9c-0.1-0.4,0.6-0.5,0.4-0.9c0.1-0.3,0.6-0.6,0.4-0.9c-0.4-1.1,0.8-2.2,0.8-3.1
		c-0.1-0.4,0.5,0.2,0.6-0.2c0.1-0.6-0.3-1.3,0.1-1.7c0.1-0.5-0.2-1,0.1-1.4c0.2-0.3,0.6-0.4,0.8-0.1c0.2,0.3,0,0.9,0.4,0.8
		c0.3-0.2,0.1-1.6,0.2-1.6c0-0.1,0.3-0.4,0.8-0.4c0.1,0,0.2,0.6,0.7,0.6c0.5,0.3,1.2,0.4,1.2,0.6c0.1,0.5-0.9,0.9-0.4,1.3
		c0.1,0.1,0.6-0.1,0.6,0.3c0.1,0.5-0.6,0.8-0.4,1.4c0.1,0.8-0.8,0.9-1.1,1.5c-0.1,0.2,0.2,0.4,0.4,0.4c0.1,0.1,0.3-0.1,0.4,0.1
		c0.1,0.4-0.1,0.7-0.2,1c-0.2,0.1-0.6,0.2-0.6,0.4c-0.1,0.9-0.4,1.6-1,2.1c-0.1,0-1.3,0.2-0.8,0.9c0.2,0.2,0.7-0.4,0.8,0.1
		c-1.4,2.5-1.9,3.1-1.9,3.1c-0.4,0.7-1.5,0.4-1.5,1.4C203.2,42.7,203.5,43,203.3,43.2 M203.4,45.2c0.4,0.8,0.5,1.5,0.5,1.5v0.4
		c0,0.2-0.6,0.2-0.6,0.2c0-0.2,0.4-0.4,0.1-0.5c-0.2,0-0.5,0.4-0.6,0.2c-0.1-0.2,0.4-0.3,0.2-0.6c-0.1-0.1-1.1,0.7-1.1,0.5
		c-0.1-0.4,1.1-0.9,0.9-1.1c-0.2-0.3-1.1,0.6-1.3,0.6h-0.1C201.2,46.4,201.9,45.4,203.4,45.2 M205.3,47.4c0,0.4-2.8,1.5-2.8,1.5
		c-0.1,0.1,0,0.1-0.1,0.4c0,0.1,0.2,0.1,0.3,0.3c0,0.1-0.4,0.1-0.2,0.4c0.4,0.3-0.1,0.5-0.3,0.4c-0.1-0.1-0.5-1.1-0.6-1.2
		c-0.1-0.1-0.1-0.2-0.1-0.3c-0.1-0.1-0.1-0.2,0.1-0.3c0.6-0.1,1.1-0.1,1.7-0.1C203.3,47.9,204.8,47.4,205.3,47.4 M193.5,51.2
		c0.1-0.6,2.7-1.1,3-1.3c0.6-0.4,0.9-0.7,1.1-1.1c0.4-0.6,0.3-1.2,0.4-1.4c0.4-0.5,1.1-1.2,2.4-1.5c0.1-0.1,0.8-0.3,0.3,0.5
		c-0.3,0.4-0.3,0.9-0.5,1.3c0,0.2,0.3,0.6,0.6,1.2c0.1,0.1,0.2,0.3,0.3,0.4c0.2,0.4,0.4,0.9,0.4,1.3c-0.3,0.4-4.4,3-5.4,3.1
		c-0.8,0.1-1.6,0-2.5-0.1c-0.1-0.5-0.3-1-0.3-1C193.4,52.1,193.4,51.6,193.5,51.2 M191.9,52.6c0.1-0.3,0.6-0.5,0.9-0.5
		c0.1,0,0.2,0.2,0.3,0.5c0,0.4,0,0.8-0.1,0.9c-0.2,0-0.4-0.1-0.6-0.1c0,0,0.1-0.6-0.4-0.4C191.8,52.9,191.8,52.7,191.9,52.6
		 M206.1,47.2c0,0,0.1-0.5,1.1,0.1c0.1,0.2,0.2,0.8,0.4,1.5c0,0,0.5,1.6,1.1,3.9c0.1,0.6-0.1,0.9-0.4,1.2c-1.4,1.3-7.2,4.7-7.9,5.1
		c-0.9,0.6-2.5,1-4.3,1.1c-4.5,0.2-10.5-0.9-11.4-1.6c1.1-1.6,0.8-3,0.7-3.3c-0.6-0.9-1.2-2.4-1.4-2.6l0.1-0.1
		c8.6,1.8,11.9,1.9,12,1.8c1.2-0.1,7.1-3.9,9.4-5.5c0.9-0.6,1.4-1.1,1.2-1.4C206.7,47.2,206.4,47.2,206.1,47.2 M192,62.1
		c0.1,0.2,0.4,0.7,0.7,1.2c0.3,0.5,0.6,1,0.9,1.1c0.2-0.2-0.4-0.6,0.1-0.9c0.7-0.1,0.8,1.9,2.6,1.2c0.4,0.5,1.4,0.3,2,0.4
		c0,0.1-0.1,0.3-0.1,0.3c-1.3-0.1-2.9-0.1-4,0.7c-0.2,0.1,0,0.5-0.2,0.6c-0.3-0.4,0-0.8,0.2-1.1c0.1-0.3,0.9-0.1,0.5-0.6
		c0,0-0.4-0.3-1.4,1.1c-0.1-0.1-0.1-0.5-0.4-0.6c-0.9,0.2-1.2-0.9-2-1.1c-0.2-0.1,0.1-0.3,0-0.5c-0.4-0.3-0.9-0.5-1.4-0.6
		c-1.4-0.4-0.3-1.1-0.8-1.3c-2.5-0.8-2.3-1.4-2.3-1.4c0.1-0.4,0.5,0.1,0.7-0.1c-0.1-0.1-0.3-0.2-0.2-0.4c0.4-0.2,1.1,0.7,1.3,0.6
		c0.3-0.2-0.2-0.5,0.1-0.5c0.8-0.1,2.7,2.1,3.2,2.3c0.1-0.1-0.1-0.2-0.1-0.4C191.7,62,191.9,62,192,62.1 M184,58
		c-0.5-0.6,0.4-2.3-0.3-2.3c-0.2,0.1,0,0.4,0,0.6c-0.3,0.7-0.3,1.6-0.9,2.1c-0.1,0-0.1-0.1-0.1-0.3c0.2-0.6,0.5-1.3,0.4-2
		c-0.1,0-0.4-0.3-0.4,0.5c0,0.6-0.6,1-0.6,1.6c0,0.2-0.4,0.4-0.7,0.4c0-0.8,0.5-1.4,0.5-2.1c0.3-0.4,0.4,0.2,0.4,0.2
		c0.1-0.2,0.2-2.8-0.8-3.3c-0.1,0.1,0.6,1.4,0.3,2.3h-0.3c-0.2-1.6-0.7-2.6-1.1-3c-0.9-0.9-1.8-0.5-2.1-0.6c0.1-0.3,0.5-0.5,0.8-0.6
		c0.4-0.1,0.8,0.1,1.3,0.3c0.6,0.2,1.2,0.6,1.5,0.7c0.1-0.1,0.1-0.2,0.1-0.4c-0.1-0.1-0.2-0.2-0.1-0.4c1-0.6,3.7,3.8,3.1,5.2
		C184.8,57.5,184.5,57.9,184,58 M154.8,50.6c0,0-0.1,0.1-0.1,0.1c-0.4,0.6-0.7,0.6-1.1,0.4l-0.1-0.1l0.3-0.4l0.3-0.5
		c0.1-0.1,0.4-0.5,0.4-0.6c0.1,0,0.2,0.1,0.3,0.1C155,49.8,155,50.2,154.8,50.6 M180.4,58.4c-2,0.2-13.1,2.1-14.1,2.2
		c-1.3,0.2-2.4,0.1-3.1-0.3c-0.9-0.4-10-5.4-10.9-7.2c-0.1-0.3-0.3-0.7-0.3-0.7l0.1,0.3l0.6,0.4l0.1-0.2c-0.4-0.2-0.3-0.5,0.1-0.9
		l0.6-0.7c0.1,0.1,0.1,0.4,0.1,0.8l-0.2,1.5l0.8,0.5l0.1-0.2c-0.1-0.1-0.1-0.1-0.1-0.4l0.1-1.9c0.4,0.1,0.9,0,1.2-0.5
		c0.1-0.1,0.2-0.4,0.2-0.5c0.1-0.2,0.1-0.4,0-0.6c-0.1-0.2-0.4-0.4-0.6-0.6l-0.6-0.4l-0.6-0.4l-0.1,0.2c0.4,0.2,0.2,0.5-0.1,0.9
		l-0.6,0.9l-0.7,1c-0.1,0.2-0.3,0.4-0.4,0.5v0.1c-0.1-0.3-0.1-0.5,0.1-0.6c0.7-1.3,1-2.8,1.4-4.1c0.1-0.4,0.4-0.3,0.6-0.4
		c-0.1,0.1-0.1,0.4-0.1,0.6c0.1,0.2,1.9,1.4,3.9,2.6c3.4,2.1,7.6,4.5,7.7,4.4c0.6,0,3.6-0.6,6.8-1.1c3.1-0.5,6.5-1,7.3-0.9
		c0.3,0,0.6,0.4,0.9,1c0.5,1.2,0.9,3.1,1.1,3.8C181.3,58.6,180.4,58.4,180.4,58.4 M171.5,63.7c-0.1,0-0.1,0.1-0.1,0.2
		c-0.2,0.4-0.8,1.1-1.3,1.3c-0.5,0.1-0.8-0.4-0.9,0c-0.1,0.4,0.5,0.1,0.6,0.5c0.3,0.8-0.4,1.2-0.6,1.3c0.1-1.6-1.4-1.7-1.9-1.8
		c0,0-1.4,0.4-1.2-0.1c0-0.5,1.2-0.8,2-1.2c0.1-0.1,0.1-0.1,0.2-0.1c0.4-1.1,1.7-1.5,2.6-1.9c0.4,0.1,1,0.6,1.7-0.4
		c-0.3-0.4,0.1-0.5,0.3-0.5c0.2,0-0.1,0.2,0,0.4c0.4,0,0.6-0.4,0.9-0.4c0.2-0.1,0.1,0.1,0.2,0.2c0.1,0.1,0.3-0.1,0.4,0
		C174.8,61.2,172.8,63.2,171.5,63.7 M156.2,47.4c0.4,0.3,0.9,0.6,1.6,0.8c0.4,0.1,0.9,0.2,1.5,0.2c-0.1,0.4-0.6,1.6-0.8,1.9
		c-0.3-0.1-0.6-0.2-0.8-0.4c-0.2-0.2-0.4-0.4-0.7-0.6c-0.1-0.1,0.3-0.4,0-0.6c0-0.1,0.1-0.1,0.1-0.1c0.5,0.2,0.5-0.1,0.4-0.2
		c-0.9-0.4-1.6-0.8-2.5-1.3C155.4,47.2,155.8,47.3,156.2,47.4 M157.5,45.1c0.1,0,0.2,0.1,0.4,0.1c0.4,0.1,0.6,0.4,0.9,0.6
		c-0.1,0.2-0.4-0.2-0.6,0c-0.1,0.1,0.9,0.6,0.7,1c-0.1,0.1-0.6-0.6-0.6-0.4c-0.2,0.4-0.1,0.6-0.4,0.9h-0.1c-0.3,0-0.6,0-1-0.1
		C156.8,46.6,157.1,45.7,157.5,45.1 M168.8,52.1c0.2,0.1,0.6,0.3,0.9,0.5c0.3,0.3,0.6,0.5,0.5,0.6c0.1,0.1-1.4,0.5-1.9,0.6
		c0.1-0.4,0.3-0.7,0.4-1.1C168.8,52.4,168.8,52.3,168.8,52.1 M167.3,49.7c-0.3-0.1-0.4-0.3-0.8-0.5c0.1-0.3-0.1-0.4-0.2-0.4
		c-0.1,0.3-0.4,0.4-0.6,0.5c-0.1,0-0.4,0-0.5-0.1c0.2,0,0.4-0.1,0.5-0.3c0-0.2,0-0.4-0.1-0.5c-0.3,0.1-0.1,0.6-0.6,0.6
		c-1.2-0.5-2.9-3.1-3.1-3.5c-0.4-0.4-0.6-0.1-1-0.2c-0.3-0.1-2.6-2.6-3.2-3.2c-4.8-5.1-4.9-7.4-4.9-9.7c0-0.7-0.1-1.4-0.1-2.1
		c0-0.2,0-0.4,0.1-0.6c0.2-0.4,0.9,0.4,1.1,0.6c1.1,1.4,2.6,4.8,3.1,6.5c0.1,0.2,0.1,0.5,0.2,0.7c0.1,0.6,0.3,1.2,0.4,1.8
		c-0.4-0.2-0.5-0.7-0.7-1.1c-0.1-0.2-0.2-0.1-0.4-0.1c-0.1-0.2-0.3-0.4-0.4-0.6c-1.2-2.1-2-4.4-2.6-6.8l-0.2-0.1c-0.3,0,0.1,1.9,1,4
		c-0.2,0-0.4-0.3-0.6-0.1c-0.1,0.8,1.7,2.4,1.9,3.1v0.2c1.1,1.4,1.9,3,2.7,4.5c0.3,0.5,0.9,0.8,1.1,1.3c0.1,0.1,0.4,0.1,0.5,0.4
		c0.3,0.4,0.4,0.9,0.9,1.1c0.4,0.1,0.4,0.1,0.5-0.1c0-0.3-0.2-0.5-0.2-0.9c0.1,0.4,0.4,0.5,0.7,0.6l0.6-0.2c0.2,0.4-0.1,0.7-0.1,1.1
		c0.6,0.7,2,2.8,2.3,2.4c0.4-0.6,0.7,0.6,1,0c0.1-0.3-0.1-0.6-0.3-0.6c-0.9,0.3-0.9-0.9-1.4-1.4c-0.5-0.9-0.6-2.1-1.4-2.9
		c-0.8-1.1-1.3-2.2-2.2-3.1c-0.1-0.1,0-0.5,0.2-0.6c0.5,0.1,0.3,1,0.9,1c0.3,0,0.1-0.8,0.5-0.9c-0.1,1,0.8,3.2,2.1,4
		c0.1,0.1,0.4,0.4,0.3,0.6c-0.1,0.1-0.2-0.1-0.3,0c-0.1,0.4,0.4,0.4,0.4,0.6c0,1.6,4.2,6.1,7.4,6.7c0.1,0.1,0.2,0.2,0.4,0.3
		c0.3,0.1,0.8,0.1,0.6,0.7c0.1,0.1,0.4,0.2,0.4,0.4c-0.4,0.1-0.7,0.1-1,0.1c-0.4,0-0.8-0.1-1-0.3C170.8,52.4,167.6,49.8,167.3,49.7
		 M157.3,36.5c0.1,0.1,0.5,0.5,0.8,1.1c0.1,0.3,0.3,0.6,0.4,0.9l-0.1,1h-0.1c-0.2-0.6-0.4-1.3-0.6-1.9
		C157.6,37.2,157.5,36.8,157.3,36.5 M156.7,22.5c-0.1,0.6,0.1,1.4-0.3,2c-0.3,0.5,0.1,1.2-0.4,1.6c0.1-1,0.2-2.6,0.4-3.6
		c0,0,0.1-0.6,1.2-3.6c0.5,0.8-0.3,2.7-0.6,2.9C156.8,22,156.8,22.2,156.7,22.5 M155.9,29.5c-0.6,0.2-1-1.1-1-1.1
		c-1.4-4.5-1.6-10.1,1-14.2c0.1-0.1,1.3-2.9,2.4-3.9c0.1,0,0.1,0.1,0.2,0.3c0.1,1-0.4,3.3-0.4,3.6c-0.3,1.4-1.7,7-2.1,8.4
		c-0.1,0.6-0.3,1.2-0.4,1.9c-0.3-0.3,0-0.7,0-1.1c-0.2-1.9,1.4-8.1,1.7-9.1c0.4-0.9,0.6-1.7,0.8-2.7l-0.2,0.2
		c-0.2,0.9-0.6,1.7-0.9,2.6c-1,2.9-2.1,5.8-1.9,9.1c-0.4,1.7-0.4,3.6,0.2,5.2c1.4,1.3,0.8-0.8,1-1.5c0.1-0.6,0.6-1.1,0.4-1.7
		c0.1-0.9,0.3-1.7,0.7-2.5c-0.1-0.1-0.2-0.1-0.3-0.3c0-0.1,0-0.4,0.1-0.6c0.6-0.4,0.9-2.4,1.4-2.4c0-0.2,0.1-0.4,0-0.6
		c-0.2,0.1-0.5,0.2-0.6-0.1c0.2-0.8,0.1-1.7,0.8-2.2c0,0,0-0.4,1-1.6c0,0.6-1.6,2.4-1.3,3.3c0.1,0.1,0.2,0.1,0.4,0.1
		c0.3-0.1,0.3-0.8,0.7-0.7c0,0.4-0.9,0.9-0.1,1.1c1.2-0.7,1.5-1.9,1.5-1.9c0.3-1.2,0.9-1.9,1.4-2.7c1.5-2.4,3.2-3.7,4.5-4.5
		c0.2-0.2,0.5-0.1,0.5,0.1c0,0.1-0.2,0.8-0.5,0.4c-0.9,0.7-2.6,2.9-3.4,4c0,0-0.4,0.2-2.6,3.9c-0.4,0.6-0.9,1.2-1.5,1.4
		c-0.1-0.1-0.2-0.2-0.3-0.1c-0.1,0.1-1.1,2.8-1.8,5.4c-0.4,1.3-0.6,2.6-0.7,3.5c0,0.3-0.1,0.6,0.1,0.8c0.8-0.5,0.9-1.4,1.4-2.1
		c0.1-0.1,0.2,0,0.2,0.1c-0.4,0.8-0.4,2.5-1.6,2.4c0,0.1-0.1,0.4-0.1,0.9c0,0.8,0.1,1.8,0.6,2.5c0.1,0.1,0.8,3.4,1.6,4.2
		c0.1,0.2,0.1,0.4,0,0.4c0,0-0.1,0.1-0.1,0.2c-0.1-0.1-0.2-0.2-0.3-0.4c-0.4-0.6-0.7-1.3-1-2c0-0.2,0.2-0.3,0.1-0.4
		c-0.3-0.2-0.5-0.4-0.6-0.6c-0.1-0.3,0.5-0.2,0.4-0.5c-0.2-0.4-0.9,0-0.9-0.5c0.1-1.1-0.2-2-0.4-3C156,30,155.9,29.7,155.9,29.5
		 M162.5,6.8c0.9-1.2,1.8-1.9,2.4-2.3c0,0,0.5-0.3,0.8-0.4v0.4c-0.1,0.7-0.3,1.5-0.6,2.3c-1.1,2.7-3.2,5.9-4.5,7.4
		c-0.2,0.3-0.4,0.5-0.6,0.6c0-0.2,0.1-0.4,0.1-0.6c0.5-1.8,2.5-5.3,3.9-7.4c0.2-0.4,0.5-0.7,0.7-1c0.3-0.5,0.8-1.1,0.5-1.1
		c-0.3,0.1-0.6,0.5-0.7,0.8c-0.3,0.4-0.7,0.9-1.1,1.4c-1.4,2.2-3.1,5.7-3.9,7.4c-0.1,0.4-0.2,0.6-0.3,0.8c-0.2,0.3-0.3,0.6-0.5,0.8
		c0.1-0.5,0.3-1.1,0.4-1.6C160.2,10.7,161.4,8.3,162.5,6.8 M168.2,4.5c3.1-3.1,7.5-3.9,7.7-3.9v0.1c-1.1,1.2-2.2,2.4-3.6,3.1
		c-0.2,0.1-0.6,0.4-0.9,0.6c-0.9,0.6-2.2,1.1-2.5,1.3c-0.1,0-0.1,0-0.1-0.1c0-0.1,0.6-0.6,1.4-1.1c1.2-0.9,4.4-2.8,4.6-3.2
		c-1.8,0.9-3.5,2-5.1,3.2c-0.4,0.3-0.8,0.6-1.1,0.9c0-0.1-0.1-0.1-0.1-0.2c-0.2,0-1.1,0.9-1.6,1.6c-0.2,0.3-0.4,0.5-0.6,0.6
		c0-0.2,0.1-0.4,0.3-0.6C166.5,6.7,167.1,5.4,168.2,4.5 M166,8.2c0.1-0.3,0.6-0.9,1.1-1.4c0.6-0.6,1.1-0.9,1.3-0.8
		c0,0.2-0.1,0.4-0.6,0.8c-0.4,0.4-0.9,0.7-1.1,0.8C166.7,8,166,8.4,166,8.2 M166.5,9.2c-0.1,0.1-1.4,1-1.4,0.8
		C165.2,9.7,167,8.5,166.5,9.2 M165,10.2c-1.1,1-2.4,2.6-3.4,4.1c0,0-0.9,1.4-1.6,2.5c0,0-0.1,0-0.2-0.2c0.1-0.2,0.6-1.1,1.4-2.4
		c1.4-2,3.3-4.6,3.6-5.3c0.2-0.1,0.5-0.2,0.6-0.3c-0.2,0.6-0.6,0.9-1,1.4C164.8,10.1,164.8,10.1,165,10.2 M177.2,3.1
		c-0.2,0.5-1.1,1.4-1.4,1.4c-0.8,0.7-2.3,1.6-3.5,2.4c-0.9,0.5-1.8,0.9-2,1c-0.1,0.1-0.9-0.2,0.3-0.9c0.1-0.1,0.1-0.1,0.3-0.1
		c0.8-0.4,2.5-1.4,3.9-2.3c0.8-0.4,1.4-0.9,1.9-1.1c0,0,0-0.1-0.1-0.1C176,3.5,175,4,174,4.5c-1.3,0.6-2.7,1.5-4,2.3
		c-1.1,0.7-2.1,1.4-2.6,1.8c-0.1,0.1-0.1,0.1-0.2,0.1c-0.1,0.1-0.4,0.2-0.5,0.1c0.1-0.3,0.5-0.4,0.7-0.6c0.4-0.4,0.9-0.9,1.6-1.4
		c1.1-0.9,2.6-1.8,3.6-2.4C173.3,4.2,177,2.5,177.2,3.1 M168,9.1c0-0.1,0.1-0.3,0.1-0.4c0.4-0.6,1.4-1.1,1.2-0.4
		c-0.1,0.1-0.2,0.3-0.4,0.4C168.5,8.9,168.1,9.1,168,9.1 M165.1,27.1L165.1,27.1l6.4,2.6l2.1,0.8c0.1,0,0.1,0.1,0.1,0.3l-2.1,3.5
		l-2.6,4.2c0,0.1,0,0.1-0.1,0c-1.8-2.5-3-5.3-3.4-8.2C165.2,29.2,165.1,28.2,165.1,27.1 M161,38c0.1-0.1,0.2-0.4,0.3-0.5
		c0.1-0.1,0.2-0.3,0.4-0.4c-0.1,0.1-0.1,0.3-0.1,0.4c-0.1,0.5-0.2,0.9-0.3,1.5C161.1,39.3,160.8,38.5,161,38 M160.4,37.5
		c0,0,0.1-0.6,0.2-1.3l0.7-1.6c1.1,0.1-0.4,2.5-0.6,2.9c-0.1,0.2-0.3,0.4-0.4,0.4C160.3,37.9,160.3,37.7,160.4,37.5 M159.2,37.5
		c0.3-1.4,0.8-2.6,1.1-3.1c-0.1-0.6,1-2.5,1.5-2.9l0.1,0.1c0.1,2.3-1.6,3.8-1.9,5.9v0.1c-0.2,1.2-0.8,2.5-0.4,3.7
		c0.1,0.3,0.7,0.3,1.1-0.1c0.4,0.6,0.2,1.6,0.4,2.3l-0.1,0.1c-0.4,0.1-0.4-1.4-0.6-1.5c-0.1,0-0.2,0.3-0.6-0.1
		C158.8,41,158.8,39.2,159.2,37.5 M159.9,33.5c0,0.3-0.1,0.6-0.3,0.6c-0.1,0.1-0.4-0.1-0.4-0.2C159,33.3,159.8,33.4,159.9,33.5
		 M160.9,24.7l-0.2,1.2l-1.4,0.4v3.1c0,0-0.4-0.1-0.8-0.2c-0.2-1-0.1-1.6-0.1-1.6c0.1-0.6,0.7-1.4,1.4-1.9c0.2-0.1,0.5-0.5,0.7-0.9
		c0.1-0.2,0.3-0.4,0.4-0.6L160.9,24.7z M164.3,14.3c-0.4,0.7-1.1,1.4-1.7,1.6c0.5-0.8,1.2-1.7,1.2-1.7c0.9-1.1,2-2.6,2.6-3.5
		l0.2-0.1C167,11.2,165.8,13.5,164.3,14.3 M166.3,14.2l-0.4,0.4c-0.1-0.1-0.1-0.2-0.1-0.4c0.1-0.4,0.9-1.1,1.1-1.3l0.2,0.6
		L166.3,14.2z M158.7,24.7c0.1-3.5,5.7-10,6.6-10.1c0.9,0-2,6.2-3.9,7.9c-0.6,0.8-1.4,1.5-1.9,2.3c-0.1,0.2-0.2,0.5-0.3,0.7
		c-0.1,0.1-0.1,0.1-0.3,0.1c0-0.2,0.1-0.5,0.3-0.9c0.9-2.3,4.5-7.1,5.6-9c0,0,0.1-0.3-0.1-0.2c0,0-2.4,2.2-5.8,9.2l-0.5,1.1
		l-0.1,0.1C158.4,25.5,158.4,25,158.7,24.7 M157.7,24.7c0.5-2.8,1.8-5,2.4-5.2c0.1,0.4-0.4,0.9-0.6,1.2c-0.5,1.3-0.9,2.6-1.4,4
		c-0.1,0.7-0.4,1.4-0.5,2.1l-0.1-0.1C157.5,26.1,157.6,25.4,157.7,24.7 M157.4,30.4c0.3,0.1,0.4,0,0.4-0.1c0.1-0.1,0.1-0.4,0.2-0.4
		c0.6,0,1.5-0.1,1.9,0.4v0.1c0.2,0.6,0.2,1.2,0.4,1.8c0.1,0.7-1.6,0.9-1.6,1.4c0.1,0.8,0.6,1.5,0.3,2.4c-0.2-0.8-0.9-1.6-0.9-2.6
		C157.3,31.8,157.3,30.9,157.4,30.4 M164,30.2c0.1-0.6,0.1-0.9,0-1.1l-0.1-0.1c-0.1,0.1-0.2,0.6-0.3,1.3c-0.3,2.4-0.5,7.1-0.3,9.6
		c0,0.4,0.1,1.5-0.1,1.5H163c-0.4-0.4-0.1-1-0.2-1.6c-0.2-0.7-0.4-1.5-0.5-2.3v-0.4c-0.6-1-0.1-4.6,0.6-6.9c0.4-1.2,0.7-2.1,1-2
		c0.4,0.1,0.7,0.9,0.9,2c0.2,1.9,0,4.5-0.4,5.1c-0.1,0.9-0.1,1.8-0.3,2.6c0,0.3,0.2,0.6-0.2,0.6c-0.1,0-0.1-0.4,0-0.5
		C163.3,37.4,163.8,32.5,164,30.2 M176.4,52.1c0.1,0.1-0.1,0.2-0.2,0.3c0,0-0.2,0.1-1.5-0.2c-0.6-0.1-1.6-1-1.9-0.9
		c-0.1,0-0.3-0.1-0.5-0.1c-0.9-0.3-2.1-1.2-2.4-1.4c-0.1-0.1,0.4-1,1.6-0.8c0.3,0.1,0.7,0.2,0.7,0.2
		C173.3,49.5,175.3,50.4,176.4,52.1 M191.5,48c-0.6,0-3.1,1-4.6,1.7c-0.6,0.2-1.1,0.4-1.2,0.5c-0.9,0.4-0.9,1-1.6,1.6
		c-0.6,0.1-1,0.1-1.4-0.3c-0.4-0.6-1.5-0.3-1.6-0.2c-0.3,0.2-0.5,0.1-0.7,0c-0.2-0.1-0.4-0.3-0.7-0.3c-0.6,0.1-1.4,0.1-1.9,0.6
		c-0.3,0.2-1.1,0.3-1.6-0.6c-0.9-1.2-2.7-2.1-3.9-2.4c-0.5-0.2-0.9-0.3-1.1-0.4c-0.4-0.1-1.1-0.1-1.9,1.2c-3.8-2.1-4.1-5.6-4.1-5.6
		c-0.9-1.7-0.9-1.9-0.9-1.9l1.5-0.6l1.3,1.3l-0.6,1.4l2.9,2.1l1.2-0.9l1.6,0.8l-0.1,1.5l3.5,1.1l0.8-1.3l1.8,0.3l0.4,1.5h3.7
		l0.4-1.5l1.8-0.3l0.8,1.3l3.5-1.1l-0.1-1.5l1.6-0.8l1.2,0.9l2.9-2.1l-0.6-1.4l1.3-1.3l1.2,0.4c0,0,0.3,0.1-1.1,1.6
		c0,0-0.6,2.9-2.9,5.4C192,48.7,192,48.2,191.5,48 M184.9,51.9c0-0.4,0.4-0.9,0.8-1.1c0.4-0.2,1.4-0.7,2.5-1.1
		c1.1-0.4,3.4-1.8,3.6-0.6c0.1,0.2-0.1,0.4-0.2,0.6h-0.1c-0.6,0.1-1.2,0.4-1.9,0.3c-0.4,0.2-2.2,1.8-2.9,1.9
		c-0.3,0.1-0.7,0.2-0.6-0.2C186,51.3,185.1,51.9,184.9,51.9 M202,27.9c0,0.2,0,1-0.4,1.1v-2.4c0,0,0.8,0,0.4,0.6
		C201.9,27.5,202,27.9,202,27.9 M199,36.3c0.1-0.4,0-0.9,0.3-1.2c0-0.1,0-0.2-0.1-0.3c-0.2,0.1-0.4,0.9-0.5,1
		c-0.4-0.4-0.1-1.2-0.4-1.7v-0.9c0.1-1.1,0.4-2.3-0.4-3.1c0-0.3-0.3-1.5-0.4-1.9c-0.1-0.1-0.2,0.1-0.2,0.1c0,0.4,0.3,1.7,0.4,2.1
		c-0.3-0.1-0.8-0.4-1.1-0.1c-0.2-0.3-0.3-0.6-0.3-0.9l-0.1-0.9c0.5-0.3,0.6-0.7,1.1-1c0.3,0.1,0.4,0.4,0.8,0.4
		c0.2-0.1,0.4-0.3,0.5,0c0.2,0.5-0.2,1-0.1,1.4c0,0.1,0,0.1,0.1,0.2l0.4-0.1c0.1,0.1,0.2,0.4,0.1,0.6c-0.2,0.9,0.8,1.7,0.2,2.1
		c-0.6,0.4-0.4,1.3-0.3,1.5c0.5-0.1,0.6-0.8,1.1-0.6c0.2,0.2,0.8,2.6-0.1,3c-0.6,0.4-0.4,1.4-0.9,1.9C198.8,37.5,199,36.5,199,36.3
		 M198,32c0.1,0,0.1,0.7,0,1.3c-0.1,0.1-0.1,0.3-0.1,0.4c-0.1,0-0.1-0.1-0.2-0.4C197.8,33.1,197.7,31.9,198,32 M195.5,29.3
		c-0.4,3.1-1.6,6.1-3.5,8.8c-0.1,0-0.1,0-0.1-0.1l-4.7-7.6c-0.1,0-0.1-0.1,0.1-0.3l5.4-2.2l3-1.2v0.1
		C195.7,27.7,195.7,28.5,195.5,29.3 M196.6,32.2c0.1-0.1,0.3-0.1,0.2-0.3c-0.1-0.2-0.1-0.4-0.6-0.5c-0.5-0.1-0.4-0.9-0.2-1
		c0.2,0.2,0.5,0.3,0.8,0.2c0.4-0.2,0.7,0.4,0.6,0.6c-0.3,0.4,0.1,1-0.4,1.3c0,0.2,0.1,0.4,0.1,0.6c0.1,0.4,0.2,0.9-0.2,1.2
		c-0.4-0.3,0.2-0.9-0.3-1.1v-0.1C196.5,32.9,196.6,32.5,196.6,32.2 M198.5,37.2c0.1,0.1,0,0.3,0,0.4c-0.8-0.4-0.6-0.8-1.4-0.8
		c-0.1,0-0.1,0.1-0.1,0.2c0.6,0.2,1.1,0.8,1.3,1.4c-0.1,0.2-0.4,0.4-0.6,0.3c-0.5-1.1-1.4-0.6-1.5-1c0.1-0.5,0.1-1.1,0.2-1.6
		c0.1-1,1.4-1.5,1.5-2.1c0.3,0.4,0.3,1.9,0.3,2.1C198.2,36.7,198.2,36.9,198.5,37.2 M202.6,30.7c-0.1,0.2-0.7-0.2-1.1-0.1
		c-0.8,0.6-0.4,1.4-0.4,2.2c-0.4-0.1-0.9-0.4-1-0.6c-0.1-0.7,0.1-1.5,0.4-2c0.3-0.6,2.1,0.4,1.8-2.2v-0.2c0.1,0.1,0.1,0.1,0.2,0.2
		C203.2,28.7,202.8,29.8,202.6,30.7 M169.4,11l1.1,0.9l2.6-1.3L173,9.2l2.3-0.8l0.8,1.2l2.8-0.5l0.4-1.3h2.4l0.4,1.3l2.8,0.5
		l0.8-1.2l2.3,0.8l-0.1,1.4l2.6,1.3l1.1-0.9l2,1.4l-0.6,1.3l1.6,1.6c0.2,1.3,0.6,2.2,0.6,2.2s0.4,1.3,1.4,1.1l-0.6,0.6
		c1.4,3.9,3.1,5,3.1,5l0.4,2.4l1.4,0.4v2.4c0,0-0.7,0.6-0.9,2.4c-0.5-1.9-0.6-2.4-0.6-2.4c-0.4-3.1-2-2.6-2.6-2.1
		c-0.1,0.1-0.2,0.2-0.4,0.4v-0.9c0-0.2-0.1-0.4-0.1-0.5c-0.2-0.3-0.6-0.4-0.9-0.2l-4.3,1.8l-4,1.6c-0.1,0.1-0.2,0.1-0.3,0.2
		c-0.3,0.3-0.3,0.7-0.1,1l4.7,7.7c0.1,0.1,0.4,0.3,0.6,0.3c0.2,0,0.4-0.1,0.6-0.3c1.6-2.1,2.6-4.5,3.3-7c0,0.1,0.4,0.6,0.4,1.8
		c0.1,0.6,0.6,1.4-0.1,2.1c-0.1,0.1-0.2,0.5-0.2,0.9c-0.1,0.5-0.2,1.1-0.3,1.4c-0.1,0.7,1.9,1.1,1.9,1.6l-1.4,1.9l-1.3-0.5l-2.1,2
		l0.6,1.3l-2,1.4l-1.1-0.9l-2.6,1.3l0.1,1.4l-2.3,0.8l-0.8-1.2l-2.8,0.5l-0.4,1.4h-2.4l-0.4-1.4l-2.8-0.5l-0.8,1.2l-2.3-0.8l0.1-1.4
		l-2.6-1.3l-1.1,0.9l-1.9-1.4l0.5-1.3l-2-2l-1.4,0.5l-0.6-0.9c0.4-0.9,1.2-6.6,1.1-7.8c0.6,2.3,1.7,4.4,3.1,6.4
		c0.1,0.1,0.2,0.2,0.4,0.3c0.3,0.1,0.6-0.1,0.8-0.4l2.1-3.4l2.6-4.3c0.1-0.1,0.1-0.2,0.1-0.3c0.1-0.4-0.1-0.8-0.5-0.9l-2.3-0.9
		l-6.1-2.5c-0.2-0.1-0.4,0-0.6,0.1c-0.2,0.1-0.3,0.3-0.3,0.5v1c-0.2-0.4-0.7-0.4-1.1-0.1c-0.3,0.4-0.7,1.4-1.1,2.2
		c-0.3,0.5-0.5,0.9-0.6,0.9l-0.1-0.9l-0.1-0.5l-1.4-0.4V27l1.4-0.4l0.3-1.9l0.1-1l-0.4-0.3c0.4-0.5,4.1-4.4,4.2-7.5l1.8-1.8l0.6-0.5
		l-0.5-1.3L169.4,11z M194.2,8.8c-0.1-0.1-0.2-0.3-0.4-0.4c-0.2-0.3-0.4-0.6-0.3-1.1c0.7-0.4-0.1-1.2,0.4-1.6
		c1.6-1.4,1.9-0.9,1.9-0.9c0.2,0.4,0.4,0.8,0.6,1.2c0.2,0.4,0.8-0.4,0.8-0.4c0.1,0.3,0.3,0.6,0.4,0.9c0.1,0.4,0.8,0.3,0.7,0.8
		c-0.1,0.4-0.6,0.6-0.2,0.9c0.1,0.2,0.2,0.5,0.6,0.4c0.3-0.2,0.1-1,0.6-0.8c0.1,0.1,0.1,0.4,0.2,0.5c0.2,0.3,0.3,0.6,0.7,0.9
		c0.6,0.3-0.5,1.2-0.3,1.6c0.4,0.5,0.1,1.4-0.3,1.8c-0.4,0.4-0.6-1.2-0.3-1.9c0-0.1,0-0.2-0.1-0.2c-0.3,0.2-0.2,0.7-0.4,0.9
		C197.5,9,197,7.7,197,7.7c-0.4,0.1-0.1,0.6-0.1,0.9c-0.8-0.9-1.4-1.8-2.4-2.5c0-0.1-0.1-0.1-0.2-0.1c-0.3,0.1,0.9,1.3,1.6,2.3
		c-0.3-0.1-0.6-0.2-0.9,0c0.1,0.4,0.6,0.1,0.8,0.3c0.9,0.6,1.5,1.5,2,2.3v0.4c-0.4-0.1-0.7-0.4-1.1-0.2c0.1,0.3,0.5,0.4,0.8,0.4
		c0.8,0.6,1.3,1.4,1.4,2.2c-0.1,0.1-0.3,0.1-0.4,0.1c-0.3-0.4-0.8-0.6-0.9-1.1c-0.3-0.4-0.6-0.8-1.1-0.8c-0.2,0.1-0.6,0.4-0.7,0
		c-0.8-0.5,0-1.5-0.9-1.9C194.7,9.7,194.3,9.4,194.2,8.8 M194.8,11.3c-0.4-0.7-1.4-1-1.6-1.8c-0.1-1.1-0.9-0.9-1.3-0.9
		c-0.1-0.1-0.1-0.2-0.2-0.2c-0.3-0.4-0.4-0.7-0.7-1.1c0.1-0.3,0.5-0.6,0.4-0.9c-0.6-0.6-0.4-2.4,1.1-2c0.4,0.1,0.8-0.4,1.2-0.1
		c0.2,0.2,1.1,0.4-0.1,1.1c-0.1,0-0.3-0.3-0.4-0.1c0.1,0.3,0.1,0.6-0.1,0.8c-0.5-0.3-0.9-0.9-1.4-1c-0.1,0-0.1,0.1-0.1,0.2
		C192,5.8,193,6,193,6.8c-0.1,0.4-0.7-0.1-0.6,0.3c0.1,0.1,0.4,0.1,0.5,0.1c0.1,0.4,0.1,0.8,0.2,1.1c0.2,0.4,0.4,0.9,0.9,1.1
		c0.3,0.7,1.1,1.1,1.1,2.1C194.8,11.7,194.9,11.4,194.8,11.3 M188.6,3.6c-1.2-0.1-2.3-1.2-2.5-1.4l-0.2,0.4
		c-0.7-0.1-2.3-1.3-2.2-0.7c0,0.4,1.7,0.9,2.2,1.4c0.2-0.1,0.4-0.2,0.6,0.1c-0.1,0.3-0.7,0.1-0.4,0.4c0.9-0.1,1.8,0.1,2.6,0.3
		c0.4,0.1-0.6,0.6-0.6,0.9c0,0.2,0.4,0,0.6-0.1c0.8-0.5,0.6,0,1.1-0.1c0.3,0,0.5,0,0.6,0.2c-0.2,0.5,0,1.1-0.1,1.6
		c-1.1-0.1-0.6-0.8-1-0.7C189,6,188.5,6,188,6.1c-0.4-0.8-1.2-0.2-1.7-0.7C186,4.7,186.9,5.2,187,5c-0.1-0.9-1.9-0.5-2.1-0.6
		c-0.3-0.4-0.4-1.2-1.1-1.2c-0.2,0-0.4-0.1-0.6-0.4c-0.4-0.4-0.1-1.6,0.6-1.5c0.4,0,0.8,0.8,1.1,0.1c0-0.2,0-0.6,0.3-0.6
		c0.7-0.1,0.9,1,1.6,0.7c0.4-0.1,0.4,0.7,0.9,0.6c0.2-0.3,0.5-0.4,0.8-0.3c0.4,0.1,0.6,0.6,0.9,0.6c0.3,0.3,0.9,0.2,1.1,0.5
		c0.1,0.1,0.2,0.2,0.1,0.5c0.4,0.4,1.1-0.4,1.1,0.6c-0.5,0.2-0.3,0.7-1.2,0.5c-0.8-0.1-1.5-1-2-1.5C188.2,3,188.6,3.5,188.6,3.6
		 M204.9,41.9c0.5-0.6,2.8-3.3,2.6-4.8c0.2-0.2,0.9,2.2,0.6-0.9c0.4-0.5,1.7-5.1,1.8-5.6c0.4-0.6,0.1-1.1,0-1.9
		c-0.1-0.4-0.3-0.6-0.6-0.9c-0.4-0.1-2.1-2-3.1-1c1.4-2.7,1.6-3.7,1.6-3.7c0.1-0.9-0.4-1.4-0.6-2.1c0.4-1-0.3-2.6-0.6-3.7
		c-0.1-0.1-0.1-0.4-0.1-0.5c-0.9-0.9-0.2-2.1-0.9-3.1c-0.1-0.3-1.1-2.3-1.7-2.9c-0.4-0.3-0.8-0.6-1-1.1c-0.1-0.6-0.6-0.4-1.1-0.4
		c-0.9-0.1-1.4-0.9-1.4-1.1c-1-1.4-2.6-3.1-3.4-3.6c-0.6-0.4-1.4-0.9-2.6-1c-1.4-0.9-2.4-0.9-2.6-0.9c-0.5-0.2-3.6-2.4-5.9-2.6
		c-3.9-0.4-3.7,2.1-3.8,2.6c1.1,1.9,2.3,2.1,2.3,2.1c0.8,0.1,1.4,1.1,2.1,1.3c0.7,0.3,3.1,1.2,3.4,1.4c0.4,0.1,0.6,0.4,0.8,0.8
		c0.3,0.4,0.5,0.9,1.1,0.8c0,0,0.3,0.1,2.9,2.9c-0.4,0.7-0.1,0.9-0.1,0.9s0.4,0.1,0.5,1.8H195l-1.3-1.3l0.6-1.4l-2.9-2.1l-1.1,0.9
		l-1.6-0.8l0.1-1.5l-3.4-1.1l-0.9,1.3l-1.8-0.3L182.2,7h-3.7l-0.4,1.4l-1.8,0.3l-0.8-1.3L172,8.6l0.1,1.5l-1.6,0.8l-1.1-0.9
		l-1.7,1.2c0,0,0.3-0.7,0.5-1.2c-0.4-0.4,0.1-0.7,0.4-0.7c0.6,0.1,1.1-0.3,1.6-0.6c0.2-0.1,2.7-1.2,3.5-1.8c0.5-0.4,1-0.7,1.3-0.9
		c0.8-0.4,1.4-0.9,1.8-1.5c0.4-0.5,0.7-1,1.1-1.5c0-0.2,0.1-0.4-0.1-0.6c-0.9-0.1-1.7,0.3-2.6,0.4L175,2.7c0.4-0.7,1.7-2,1.6-2.4
		c-0.3-0.6-0.9-0.2-1.4-0.1c-4.6,0.8-7.6,4.4-7.6,4.4c-0.6,0.6-1.1,1.1-1.3,1.4C166.2,6,166,6.2,165.9,6c0.2-0.7,0.2-1.2,0.2-1.5
		c0,0,0-0.7-0.2-0.9c-0.4-0.5-1.4,0.1-2.1,0.9c-0.5,0.4-1.7,1.7-2.1,2.3c-0.9,1.3-1.8,2.6-2.3,4.1c-0.1,0.2-0.1,0.6-0.4,0.6
		c-0.1-0.5,0-1.3-0.4-1.7c-0.4-0.4-0.9-0.1-1.2,0.1c-0.5,0.6-1.5,2-2.5,4.1c-0.9,2.1-1.9,4.8-2,8.2c-0.1,3.8,2.1,7.7,2.2,7.9
		c0.1,0.2,0.1,0.4,0,0.6c-0.1-0.3-0.3-0.4-0.5-0.6c0,0-1-1.3-1.9-1.8c-0.5,0-0.6,0.3-0.7,0.6c-0.1,0.3-0.1,0.7-0.1,1.1
		c-0.1,2.6,0.6,6.8,1.7,7.9c0.7,1.5,5.2,6.6,6.9,7.6c1.6,0.9,2.2,2.6,3.5,3.8c0.4,0.2,1.3,0.8,2.6,1c0.3,0.2,1.4,0.3,1.6,1.2
		c-0.1,0.3-0.1,0.6-0.1,0.9c-0.1,0.4-0.3,0.9-0.6,1.3c-1.5,0.4-2.3,0.3-3.1-0.1c-1.3-0.8-2.9-1.7-4.1-2.5c-1.9-1-1.1-1.1-0.9-1.6
		c0.3-0.9,0.9-1.6,0.8-2.6c-0.1-1-2.1-2.2-2.3-2.4c-0.4-0.2-0.8-0.4-0.9,0.1c-0.2,0.8-0.4,1.6-0.7,2.4c-1.6-1-3-0.6-3.5,0.1
		c-0.1,0.6-1.1,3.9-1.6,4.9c-0.3,0.7,0.4,1.9,1,2.7c0.3,0.4,8.7,7.1,13.8,7.1c0.6,0,3.9-0.8,4.8-0.9c0.1,0,0.2,0.1,0.1,0.2
		c-0.7,0.9-2.2,0.9-2.8,2.1c-0.4,0.2-0.8,0.5-1.1,0.7c-0.6,0.4-1.2,0.7-1.9,0.8c-0.6,0.1-1.5,0.3-1.5,0.6c0.4,1.1,3.6,2.1,4.2,2.3
		c0.9,0.3,1.8-0.1,2.5-0.7c0.3-0.3,0.5-1.4,1.3-1.5c0.4-0.3,1-0.9,1.7-1.5c0.8-0.6,3.9-3.1,4.5-3.2c0.5-0.9,1.4-1.4,2.3-1.7l0.4,0.4
		l0.1,0.1c0.9,0,2,0.2,2.8-0.2c0.9,1,2,2,3.2,2.5c0.6,0.4,1.6,1.4,1.7,1.6c0.2,0.3,0.5,0.6,0.7,0.9c0.1,0.1,0.3,0.1,0.4,0l1.2,1.1
		c0.1,0.1,0.4,0.1,0.5-0.1c0.1,0,1.3,1.2,1.8,1.5c0.5-0.1,0.5,0.5,0.7,0.8c0.2,0.4,3.1,0.4,4-1.3c0.3-0.1,0.6,0.1,0.9-0.1
		c0.4-0.3,1.6-0.9,0.9-0.9c-0.6-0.1-1-0.6-1.7-0.6c-0.4-0.1-0.5-0.6-0.9-0.8c-0.4,0-1.4-0.4-1.7-0.5c-1.7-0.9-2.4-1.8-3.1-2
		c-0.1-0.1-0.1-0.4,0.1-0.4c0.4,0,2.4,0.1,4.2,0.2c0.7,0,1.4,0,1.8-0.1c4.4-1.1,8.8-4.8,9.6-5.4c0.7-0.7,1.8-1.9,1.8-2.5
		c-0.1-0.9-0.9-3.2-1.3-4.4c-0.1-0.1-0.4-1.9-1-1.9c-0.7-0.9-2.2,0.3-2.7,0.1c-0.1,0-0.1-0.2-0.2-0.5c-0.1-0.4-0.3-1.2-0.4-1.7
		c-1.2-0.6-0.4-0.6-0.1-1C204.6,43.4,203.9,42.3,204.9,41.9"/>
	<path class="st0" d="M205.1,25.5c0.6-0.1,0.4-2.4,0.4-3c0.1-0.4,0.3-0.6,0.1-0.9c-0.3,0-0.2,0.6-0.5,0.6c-0.1-0.6-0.4-1.1-0.5-1.6
		c-0.3-1.1,0.6-3.1,0-3.3c0,1.7-0.3,1.7-0.3,1.7c-0.5-1.4-1.1-4.2-1-5.4l-0.1-0.1c-0.2,0.1,0,0.6-0.2,0.7c-0.1,0.1-0.1,0-0.1-0.1
		c-0.1-0.3-0.3-0.6-0.5-0.9c-0.1-0.1-0.2,0.1-0.1,0.2c0.1,0.4,0.9,1.9,0.6,2.2c-0.1-0.3-0.4-0.6-0.6-0.7c0.4,0.9,2,3.4,1.6,4
		l-0.6-0.6c-0.4-0.1-0.2,0.1-0.1,0.2c0.9,1,1.4,2.1,1.6,3.4l-0.1,0.1c-0.2-0.3-0.5-0.5-0.7-0.9h-0.2c0.1,0.6,0.5,0.8,0.9,1.1
		C205.4,22.9,205.2,24.9,205.1,25.5"/>
	<path class="st0" d="M205.8,52l0.5,0.5l-0.7,0.4l-0.2-0.9l-0.2-0.6L205.8,52z M204.5,50.3L205,52l0.4,1.4c0.1,0.4,0.4,1.1,0,1.2
		l0.1,0.2l0.9-0.6l-0.1-0.2c-0.1,0.1-0.4,0.2-0.5-0.1l-0.2-0.8l0.9-0.5l0.6,0.6c0.1,0.3-0.1,0.4-0.1,0.5l0.1,0.1l1.4-0.8l-0.1-0.2
		c-0.1,0.1-0.2,0.1-0.4,0c-0.1,0-0.4-0.3-0.5-0.4l-0.6-0.6l-2.1-1.9L204.5,50.3z"/>
	<path class="st0" d="M191,55.9h0.2l0.2-1.2l-2.9-0.6l-0.3,1.2l0.2,0.1c0.1-0.6,0.4-0.9,0.9-0.8c0.3,0.1,0.3,0.1,0.2,0.6l-0.6,2.4
		c-0.1,0.6-0.1,0.9-0.6,0.7l-0.1,0.3l1.6,0.3l0.1-0.2c-0.4-0.1-0.4-0.4-0.3-0.9l0.5-2.4c0.1-0.5,0.1-0.5,0.4-0.4
		C190.9,54.9,191,55.4,191,55.9"/>
	<path class="st0" d="M191.6,57.4l0.4-0.9l0.3-0.6l0.1,0.9l0.1,0.6L191.6,57.4z M193.3,58.2l-0.1-0.7l-0.4-2.8h-0.2l-0.7,1.6
		l-0.6,1.4c-0.2,0.4-0.4,1-0.8,0.9V59l1.1,0.1l0.1-0.2c-0.2,0-0.4-0.1-0.4-0.4l0.3-0.7l1,0.1l0.1,0.9c0,0.3-0.3,0.2-0.4,0.2v0.2
		l1.6,0.2v-0.2c-0.1-0.1-0.2-0.1-0.3-0.2C193.4,58.8,193.3,58.4,193.3,58.2"/>
	<path class="st0" d="M198.5,57.9l-0.4-2.2c-0.1-0.5-0.1-0.9,0.3-0.9l-0.1-0.2l-1.6,0.3l0.1,0.3c0.4-0.1,0.5,0.2,0.6,0.7l0.4,2.2
		c0.1,0.5,0.2,0.9-0.3,0.9l0.1,0.2l1.6-0.3l-0.1-0.3C198.7,58.8,198.6,58.5,198.5,57.9"/>
	<path class="st0" d="M196,59c-0.6,0-0.5-0.4-0.5-1.1V56c0-0.6-0.1-0.9,0.4-0.9v-0.2h-1.6v0.2c0.5,0,0.5,0.3,0.5,0.9v2.2
		c0,0.6,0,0.9-0.5,0.9v0.3h2.8l0.1-1.3h-0.2C196.8,58.8,196.5,59,196,59"/>
	<rect x="140" y="174.1" class="st1" width="81.1" height="54.1"/>
	<rect x="194.1" y="174.1" class="st2" width="27.1" height="54.1"/>
	<rect x="140" y="174.1" class="st3" width="27.1" height="54.1"/>
	<path class="st4" d="M14.2,120.2c0,1.3-0.3,2.6-0.9,3.6c-0.6,1.1-1.4,1.9-2.3,2.5c-0.7,0.4-1.5,0.7-2.3,0.9c-0.8,0.2-1.8,0.3-3,0.3
		H0.5V113h5.3c1.2,0,2.2,0.1,3.1,0.3c0.9,0.2,1.6,0.5,2.2,0.8c1,0.6,1.8,1.4,2.4,2.5C13.9,117.6,14.2,118.8,14.2,120.2 M10.3,120.2
		c0-1-0.2-1.8-0.5-2.4c-0.3-0.7-0.9-1.2-1.6-1.6c-0.4-0.2-0.8-0.3-1.2-0.4c-0.4-0.1-1-0.1-1.8-0.1H4.2v9.1h0.9c0.9,0,1.5,0,2-0.1
		c0.4-0.1,0.8-0.2,1.2-0.4c0.7-0.4,1.2-0.9,1.5-1.6C10.1,121.9,10.3,121.1,10.3,120.2 M27.2,127.4H16.7V113h10.5v2.8h-6.8v2.5h6.3
		v2.8h-6.3v3.6h6.8V127.4z M39.9,127.4h-9.8V113h3.7v11.7h6V127.4z M51.6,127.4h-9.8V113h3.7v11.7h6V127.4z M67.6,127.4h-3.9l-1-2.9
		h-5.4l-1,2.9h-3.8L58,113h4.3L67.6,127.4z M61.9,121.9l-1.8-5.2l-1.8,5.2H61.9z M87.6,122.9c0,1.4-0.6,2.6-1.8,3.5
		c-1.2,0.9-2.9,1.3-4.9,1.3c-1.2,0-2.2-0.1-3.1-0.3c-0.9-0.2-1.7-0.5-2.5-0.8v-3.5h0.4c0.8,0.6,1.6,1.1,2.6,1.4
		c1,0.3,1.9,0.5,2.8,0.5c0.2,0,0.5,0,0.9-0.1c0.4,0,0.7-0.1,0.9-0.2c0.3-0.1,0.5-0.3,0.7-0.4c0.2-0.2,0.3-0.4,0.3-0.8
		c0-0.3-0.1-0.6-0.4-0.8c-0.3-0.2-0.7-0.4-1.2-0.5c-0.5-0.1-1.1-0.3-1.7-0.4c-0.6-0.1-1.2-0.3-1.7-0.4c-1.2-0.4-2.1-0.9-2.6-1.6
		c-0.5-0.7-0.8-1.5-0.8-2.5c0-1.3,0.6-2.5,1.8-3.3c1.2-0.9,2.8-1.3,4.7-1.3c1,0,1.9,0.1,2.8,0.3c0.9,0.2,1.7,0.4,2.4,0.7v3.3h-0.4
		c-0.6-0.5-1.3-0.9-2.1-1.2c-0.8-0.3-1.7-0.5-2.6-0.5c-0.3,0-0.6,0-0.9,0.1c-0.3,0-0.6,0.1-0.9,0.2c-0.3,0.1-0.5,0.2-0.7,0.4
		c-0.2,0.2-0.3,0.4-0.3,0.7c0,0.4,0.1,0.7,0.4,0.9c0.3,0.2,0.8,0.4,1.7,0.6c0.5,0.1,1,0.2,1.5,0.3c0.5,0.1,1,0.2,1.6,0.4
		c1.1,0.4,1.9,0.9,2.5,1.5C87.3,121.1,87.6,121.9,87.6,122.9 M104.6,120.2c0,2.3-0.7,4.1-2,5.5c-1.3,1.4-3.2,2-5.5,2
		c-2.3,0-4.2-0.7-5.5-2c-1.3-1.4-2-3.2-2-5.5c0-2.3,0.7-4.2,2-5.5c1.3-1.4,3.2-2,5.5-2c2.3,0,4.1,0.7,5.5,2
		C104,116,104.6,117.9,104.6,120.2 M99.7,123.9c0.4-0.4,0.6-1,0.8-1.6c0.2-0.6,0.3-1.3,0.3-2.1c0-0.9-0.1-1.6-0.3-2.2
		c-0.2-0.6-0.5-1.1-0.8-1.5c-0.3-0.4-0.7-0.7-1.1-0.8c-0.4-0.2-0.9-0.3-1.3-0.3c-0.5,0-0.9,0.1-1.3,0.3c-0.4,0.2-0.8,0.4-1.2,0.8
		c-0.3,0.4-0.6,0.9-0.8,1.5c-0.2,0.6-0.3,1.4-0.3,2.2c0,0.9,0.1,1.6,0.3,2.2c0.2,0.6,0.5,1.1,0.8,1.5c0.3,0.4,0.7,0.7,1.1,0.8
		c0.4,0.2,0.9,0.3,1.4,0.3c0.5,0,0.9-0.1,1.4-0.3C99,124.5,99.4,124.3,99.7,123.9 M119.7,113l-5.3,14.5h-4.2l-5.3-14.5h3.9l3.5,10.2
		l3.5-10.2H119.7z M136.1,127.4h-4.6l-3.9-5.3h-1.7v5.3h-3.7V113h6.3c0.9,0,1.6,0,2.2,0.1c0.6,0.1,1.2,0.3,1.7,0.6
		c0.5,0.3,1,0.7,1.3,1.3c0.3,0.5,0.5,1.2,0.5,1.9c0,1.1-0.2,1.9-0.7,2.6c-0.5,0.7-1.2,1.2-2.1,1.7L136.1,127.4z M130.3,117.4
		c0-0.4-0.1-0.7-0.2-0.9c-0.1-0.3-0.4-0.5-0.8-0.6c-0.3-0.1-0.5-0.2-0.9-0.2c-0.3,0-0.7,0-1.2,0h-1.4v3.9h1.1c0.6,0,1.1,0,1.5-0.1
		c0.4-0.1,0.7-0.2,1-0.4c0.3-0.2,0.4-0.4,0.6-0.7C130.2,118.1,130.3,117.8,130.3,117.4 M151.5,127.4h-3.9l-1-2.9h-5.4l-1,2.9h-3.8
		l5.4-14.5h4.3L151.5,127.4z M145.8,121.9l-1.8-5.2l-1.8,5.2H145.8z M167.2,127.4h-3.6l-6.2-9.9v9.9H154V113h4.5l5.3,8.3V113h3.4
		V127.4z M177.8,127.4h-7.1v-2.6h1.7v-9.4h-1.7V113h7.1v2.6h-1.7v9.4h1.7V127.4z M191.9,115.8H188v11.7h-3.7v-11.7h-3.8V113h11.4
		V115.8z M207.2,127.4h-3.9l-1-2.9H197l-1,2.9h-3.8l5.4-14.5h4.3L207.2,127.4z M201.4,111.7H199l-3.4-3.6v-0.2h3.4L201.4,111.7z
		 M201.5,121.9l-1.8-5.2l-1.8,5.2H201.5z M229.7,127.4h-3.9l-1-2.9h-5.4l-1,2.9h-3.8L220,113h4.3L229.7,127.4z M223.9,121.9
		l-1.8-5.2l-1.8,5.2H223.9z M242.6,127.4h-10.5V113h3.7v11.7h6.7V127.4z M252.4,127.4h-7.1v-2.6h1.7v-9.4h-1.7V113h7.1v2.6h-1.7v9.4
		h1.7V127.4z M270.4,127.4h-3.7v-9.7L264,124h-2.6l-2.7-6.3v9.7h-3.5V113h4.3l3.3,7.3l3.3-7.3h4.3V127.4z M284.9,127.4h-10.5V113
		h10.5v2.8h-6.8v2.5h6.3v2.8h-6.3v3.6h6.8V127.4z M301.6,127.4H298l-6.2-9.9v9.9h-3.4V113h4.5l5.3,8.3V113h3.4V127.4z M316.4,115.8
		h-3.8v11.7h-3.7v-11.7H305V113h11.4V115.8z M331.8,127.4h-3.9l-1-2.9h-5.4l-1,2.9h-3.8l5.4-14.5h4.3L331.8,127.4z M326,121.9
		l-1.8-5.2l-1.8,5.2H326z M348.2,127.4h-4.6l-3.9-5.3H338v5.3h-3.7V113h6.3c0.9,0,1.6,0,2.2,0.1c0.6,0.1,1.2,0.3,1.7,0.6
		c0.5,0.3,1,0.7,1.3,1.3c0.3,0.5,0.5,1.2,0.5,1.9c0,1.1-0.2,1.9-0.7,2.6c-0.5,0.7-1.2,1.2-2.1,1.7L348.2,127.4z M342.4,117.4
		c0-0.4-0.1-0.7-0.2-0.9c-0.1-0.3-0.4-0.5-0.8-0.6c-0.3-0.1-0.5-0.2-0.9-0.2c-0.3,0-0.7,0-1.2,0H338v3.9h1.1c0.6,0,1.1,0,1.5-0.1
		c0.4-0.1,0.7-0.2,1-0.4c0.3-0.2,0.4-0.4,0.6-0.7C342.3,118.1,342.4,117.8,342.4,117.4 M360.7,127.4h-10.5V113h10.5v2.8H354v2.5h6.3
		v2.8H354v3.6h6.8V127.4z M15.2,107.5h-3.7v-9.7l-2.7,6.3H6.2l-2.7-6.3v9.7H0V93h4.3l3.3,7.3l3.3-7.3h4.3V107.5z M25.8,107.5h-7.1
		v-2.6h1.7v-9.4h-1.7V93h7.1v2.6h-1.7v9.4h1.7V107.5z M42.4,107.5h-3.6l-6.2-9.9v9.9h-3.4V93h4.5l5.3,8.3V93h3.4V107.5z M53,107.5
		h-7.1v-2.6h1.7v-9.4h-1.7V93H53v2.6h-1.7v9.4H53V107.5z M68,103c0,1.4-0.6,2.6-1.8,3.5c-1.2,0.9-2.9,1.3-4.9,1.3
		c-1.2,0-2.2-0.1-3.1-0.3c-0.9-0.2-1.7-0.5-2.5-0.8v-3.5H56c0.8,0.6,1.6,1.1,2.6,1.4c1,0.3,1.9,0.5,2.8,0.5c0.2,0,0.5,0,0.9-0.1
		c0.4,0,0.7-0.1,0.9-0.2c0.3-0.1,0.5-0.3,0.7-0.4c0.2-0.2,0.3-0.4,0.3-0.8c0-0.3-0.1-0.6-0.4-0.8c-0.3-0.2-0.7-0.4-1.2-0.5
		c-0.5-0.1-1.1-0.3-1.7-0.4s-1.2-0.3-1.7-0.4c-1.2-0.4-2.1-0.9-2.6-1.6s-0.8-1.5-0.8-2.5c0-1.3,0.6-2.5,1.8-3.3
		c1.2-0.9,2.8-1.3,4.7-1.3c1,0,1.9,0.1,2.8,0.3c0.9,0.2,1.7,0.4,2.4,0.7v3.3H67c-0.6-0.5-1.3-0.9-2.1-1.2c-0.8-0.3-1.7-0.5-2.6-0.5
		c-0.3,0-0.6,0-0.9,0.1c-0.3,0-0.6,0.1-0.9,0.2c-0.3,0.1-0.5,0.2-0.7,0.4c-0.2,0.2-0.3,0.4-0.3,0.7c0,0.4,0.1,0.7,0.4,0.9
		c0.3,0.2,0.8,0.4,1.7,0.6c0.5,0.1,1,0.2,1.5,0.3c0.5,0.1,1,0.2,1.6,0.4c1.1,0.4,1.9,0.9,2.5,1.5C67.8,101.1,68,102,68,103 M81,95.8
		h-3.8v11.7h-3.7V95.8h-3.8V93H81V95.8z M94.1,107.5H83.6V93h10.5v2.8h-6.8v2.5h6.3v2.8h-6.3v3.6h6.8V107.5z M111.6,107.5H107
		l-3.9-5.3h-1.7v5.3h-3.7V93h6.3c0.9,0,1.6,0,2.2,0.1c0.6,0.1,1.2,0.3,1.7,0.6c0.5,0.3,1,0.7,1.3,1.3c0.3,0.5,0.5,1.2,0.5,1.9
		c0,1.1-0.2,1.9-0.7,2.6c-0.5,0.7-1.2,1.2-2.1,1.7L111.6,107.5z M105.8,97.5c0-0.4-0.1-0.7-0.2-0.9c-0.1-0.3-0.4-0.5-0.8-0.6
		c-0.3-0.1-0.5-0.2-0.9-0.2c-0.3,0-0.7,0-1.2,0h-1.4v3.9h1.1c0.6,0,1.1,0,1.5-0.1c0.4-0.1,0.7-0.2,1-0.4c0.3-0.2,0.4-0.4,0.6-0.7
		C105.7,98.2,105.8,97.9,105.8,97.5 M127.7,100.3c0,2.3-0.7,4.1-2,5.5c-1.3,1.4-3.2,2-5.5,2c-2.3,0-4.2-0.7-5.5-2
		c-1.3-1.4-2-3.2-2-5.5c0-2.3,0.7-4.2,2-5.5c1.3-1.4,3.2-2,5.5-2c2.3,0,4.1,0.7,5.5,2C127,96.1,127.7,97.9,127.7,100.3 M122.8,103.9
		c0.4-0.4,0.6-1,0.8-1.6c0.2-0.6,0.3-1.3,0.3-2.1c0-0.9-0.1-1.6-0.3-2.2c-0.2-0.6-0.5-1.1-0.8-1.5c-0.3-0.4-0.7-0.7-1.1-0.8
		c-0.4-0.2-0.9-0.3-1.3-0.3c-0.5,0-0.9,0.1-1.3,0.3c-0.4,0.2-0.8,0.4-1.2,0.8c-0.3,0.4-0.6,0.9-0.8,1.5c-0.2,0.6-0.3,1.4-0.3,2.2
		c0,0.9,0.1,1.6,0.3,2.2c0.2,0.6,0.5,1.1,0.8,1.5c0.3,0.4,0.7,0.7,1.1,0.8c0.4,0.2,0.9,0.3,1.4,0.3c0.5,0,0.9-0.1,1.4-0.3
		C122.1,104.6,122.4,104.3,122.8,103.9 M197.8,92.4l-2.8,5.7h-2.3l1.5-5.7H197.8z M213.7,107.5h-3.9l-1-2.9h-5.4l-1,2.9h-3.8
		l5.4-14.5h4.3L213.7,107.5z M207.9,101.9l-1.8-5.2l-1.8,5.2H207.9z M229,106.7c-0.6,0.3-1.5,0.5-2.6,0.8c-1.1,0.2-2.1,0.4-3.2,0.4
		c-2.5,0-4.4-0.7-5.8-2c-1.4-1.3-2.1-3.2-2.1-5.6c0-2.3,0.7-4.1,2.1-5.4c1.4-1.4,3.4-2.1,5.9-2.1c1,0,1.9,0.1,2.7,0.3
		c0.9,0.2,1.8,0.5,2.9,1v3.4h-0.4c-0.2-0.1-0.4-0.3-0.8-0.6c-0.4-0.2-0.7-0.5-1-0.6c-0.4-0.2-0.8-0.4-1.3-0.5
		c-0.5-0.1-1-0.2-1.6-0.2c-0.7,0-1.3,0.1-1.8,0.3c-0.5,0.2-1,0.5-1.4,0.9c-0.4,0.4-0.7,0.9-1,1.5c-0.2,0.6-0.4,1.3-0.4,2.1
		c0,1.6,0.4,2.8,1.3,3.7c0.9,0.9,2.1,1.3,3.8,1.3c0.1,0,0.3,0,0.5,0c0.2,0,0.3,0,0.5,0v-2.8h-2.9v-2.7h6.7V106.7z M246.7,107.5h-4.6
		l-3.9-5.3h-1.7v5.3h-3.7V93h6.3c0.9,0,1.6,0,2.2,0.1c0.6,0.1,1.2,0.3,1.7,0.6c0.5,0.3,1,0.7,1.3,1.3c0.3,0.5,0.5,1.2,0.5,1.9
		c0,1.1-0.2,1.9-0.7,2.6c-0.5,0.7-1.2,1.2-2.1,1.7L246.7,107.5z M240.9,97.5c0-0.4-0.1-0.7-0.2-0.9c-0.1-0.3-0.4-0.5-0.8-0.6
		c-0.3-0.1-0.5-0.2-0.9-0.2c-0.3,0-0.7,0-1.2,0h-1.4v3.9h1.1c0.6,0,1.1,0,1.5-0.1c0.4-0.1,0.7-0.2,1-0.4c0.3-0.2,0.4-0.4,0.6-0.7
		C240.8,98.2,240.9,97.9,240.9,97.5 M255.2,107.5h-7.1v-2.6h1.7v-9.4h-1.7V93h7.1v2.6h-1.7v9.4h1.7V107.5z M265.2,107.8
		c-1.1,0-2.1-0.2-3-0.5c-0.9-0.3-1.7-0.8-2.4-1.4c-0.7-0.6-1.2-1.4-1.5-2.4c-0.4-0.9-0.5-2-0.5-3.3c0-1.1,0.2-2.2,0.5-3.1
		c0.3-0.9,0.8-1.7,1.5-2.4c0.6-0.6,1.4-1.1,2.3-1.5c0.9-0.4,1.9-0.5,3.1-0.5c0.6,0,1.2,0,1.6,0.1c0.5,0.1,0.9,0.2,1.4,0.3
		c0.4,0.1,0.8,0.3,1.2,0.4c0.4,0.2,0.7,0.3,0.9,0.4v3.5h-0.4c-0.2-0.2-0.4-0.3-0.7-0.6c-0.3-0.2-0.6-0.4-0.9-0.6
		c-0.4-0.2-0.7-0.4-1.2-0.5c-0.4-0.1-0.9-0.2-1.3-0.2c-0.5,0-1,0.1-1.5,0.2c-0.5,0.2-0.9,0.4-1.3,0.8c-0.4,0.4-0.7,0.9-0.9,1.5
		c-0.2,0.6-0.4,1.3-0.4,2.2c0,0.9,0.1,1.7,0.4,2.3c0.3,0.6,0.6,1.1,1,1.4c0.4,0.4,0.8,0.6,1.3,0.8c0.5,0.2,1,0.2,1.4,0.2
		c0.5,0,0.9-0.1,1.3-0.2c0.4-0.1,0.9-0.3,1.2-0.6c0.3-0.2,0.6-0.4,0.9-0.6c0.3-0.2,0.5-0.4,0.7-0.6h0.4v3.5c-0.4,0.2-0.7,0.3-1,0.5
		c-0.3,0.1-0.7,0.3-1,0.4c-0.5,0.1-0.9,0.2-1.3,0.3C266.5,107.8,266,107.8,265.2,107.8 M287.6,100.3c0,2.3-0.7,4.1-2,5.5
		s-3.2,2-5.5,2c-2.3,0-4.2-0.7-5.5-2c-1.3-1.4-2-3.2-2-5.5c0-2.3,0.7-4.2,2-5.5c1.3-1.4,3.2-2,5.5-2c2.3,0,4.1,0.7,5.5,2
		C286.9,96.1,287.6,97.9,287.6,100.3 M282.6,103.9c0.4-0.4,0.6-1,0.8-1.6c0.2-0.6,0.3-1.3,0.3-2.1c0-0.9-0.1-1.6-0.3-2.2
		c-0.2-0.6-0.5-1.1-0.8-1.5c-0.3-0.4-0.7-0.7-1.1-0.8c-0.4-0.2-0.9-0.3-1.3-0.3c-0.5,0-0.9,0.1-1.3,0.3c-0.4,0.2-0.8,0.4-1.2,0.8
		c-0.3,0.4-0.6,0.9-0.8,1.5c-0.2,0.6-0.3,1.4-0.3,2.2c0,0.9,0.1,1.6,0.3,2.2c0.2,0.6,0.5,1.1,0.8,1.5c0.3,0.4,0.7,0.7,1.1,0.8
		c0.4,0.2,0.9,0.3,1.4,0.3c0.5,0,0.9-0.1,1.4-0.3C281.9,104.6,282.3,104.3,282.6,103.9 M301.3,107.5h-10.5V93h3.7v11.7h6.7V107.5z
		 M312.6,95.8h-3.8v11.7H305V95.8h-3.8V93h11.4V95.8z M327.9,102.3c0,1.8-0.5,3.2-1.6,4.1c-1.1,1-2.7,1.4-4.8,1.4
		c-2.1,0-3.7-0.5-4.8-1.4c-1.1-1-1.6-2.3-1.6-4.1V93h3.8v9c0,1,0.2,1.8,0.6,2.2c0.4,0.5,1.1,0.7,2.1,0.7c0.9,0,1.6-0.2,2-0.7
		c0.4-0.5,0.6-1.2,0.6-2.3v-9h3.8V102.3z M345.8,107.5h-4.6l-3.9-5.3h-1.7v5.3h-3.7V93h6.3c0.9,0,1.6,0,2.2,0.1
		c0.6,0.1,1.2,0.3,1.7,0.6c0.5,0.3,1,0.7,1.3,1.3c0.3,0.5,0.5,1.2,0.5,1.9c0,1.1-0.2,1.9-0.7,2.6c-0.5,0.7-1.2,1.2-2.1,1.7
		L345.8,107.5z M339.9,97.5c0-0.4-0.1-0.7-0.2-0.9c-0.1-0.3-0.4-0.5-0.8-0.6c-0.3-0.1-0.5-0.2-0.9-0.2c-0.3,0-0.7,0-1.2,0h-1.4v3.9
		h1.1c0.6,0,1.1,0,1.5-0.1c0.4-0.1,0.7-0.2,1-0.4c0.3-0.2,0.4-0.4,0.6-0.7C339.9,98.2,339.9,97.9,339.9,97.5 M361.2,107.5h-3.9
		l-1-2.9H351l-1,2.9h-3.8l5.4-14.5h4.3L361.2,107.5z M355.4,101.9l-1.8-5.2l-1.8,5.2H355.4z M151.7,100.3c0,1.3-0.3,2.6-0.9,3.6
		c-0.6,1.1-1.4,1.9-2.3,2.5c-0.7,0.4-1.5,0.7-2.3,0.9c-0.8,0.2-1.8,0.3-3,0.3H138V93h5.3c1.2,0,2.2,0.1,3.1,0.3
		c0.9,0.2,1.6,0.5,2.2,0.8c1,0.6,1.8,1.4,2.4,2.5S151.7,98.9,151.7,100.3 M147.8,100.2c0-1-0.2-1.8-0.5-2.4
		c-0.3-0.7-0.9-1.2-1.6-1.6c-0.4-0.2-0.8-0.3-1.2-0.4c-0.4-0.1-1-0.1-1.8-0.1h-0.9v9.1h0.9c0.9,0,1.5,0,2-0.1
		c0.4-0.1,0.8-0.2,1.2-0.4c0.7-0.4,1.2-0.9,1.5-1.6C147.6,102,147.8,101.2,147.8,100.2 M165.4,107.5h-10.5V93h10.5v2.8h-6.8v2.5h6.3
		v2.8h-6.3v3.6h6.8V107.5z M178,107.5h-9.8V93h3.7v11.7h6V107.5z M189.8,107.5H180V93h3.7v11.7h6V107.5z M95.8,147.4H85.3v-14.5
		h10.5v2.8H89v2.5h6.3v2.8H89v3.6h6.8V147.4z M168.8,147.4h-10.5v-14.5h10.5v2.8H162v2.5h6.3v2.8H162v3.6h6.8V147.4z M189.3,135.7
		h-6.7v2.7h6.2v2.8h-6.2v6.2h-3.7v-14.5h10.4V135.7z M206.3,140.1c0,2.3-0.7,4.1-2,5.5c-1.3,1.4-3.2,2-5.5,2c-2.3,0-4.2-0.7-5.5-2
		c-1.3-1.4-2-3.2-2-5.5c0-2.3,0.7-4.2,2-5.5c1.3-1.4,3.2-2,5.5-2c2.3,0,4.1,0.7,5.5,2C205.7,136,206.3,137.8,206.3,140.1
		 M201.4,143.8c0.4-0.4,0.6-1,0.8-1.6c0.2-0.6,0.3-1.3,0.3-2.1c0-0.9-0.1-1.6-0.3-2.2c-0.2-0.6-0.5-1.1-0.8-1.5
		c-0.3-0.4-0.7-0.7-1.1-0.8c-0.4-0.2-0.9-0.3-1.3-0.3c-0.5,0-0.9,0.1-1.3,0.3c-0.4,0.2-0.8,0.4-1.2,0.8c-0.3,0.4-0.6,0.9-0.8,1.5
		c-0.2,0.6-0.3,1.4-0.3,2.2c0,0.9,0.1,1.6,0.3,2.2c0.2,0.6,0.5,1.1,0.8,1.5c0.3,0.4,0.7,0.7,1.1,0.8c0.4,0.2,0.9,0.3,1.4,0.3
		c0.5,0,0.9-0.1,1.4-0.3C200.7,144.5,201,144.2,201.4,143.8 M222.9,147.4h-4.6l-3.9-5.3h-1.7v5.3h-3.7v-14.5h6.3
		c0.9,0,1.6,0,2.2,0.1c0.6,0.1,1.2,0.3,1.7,0.6c0.5,0.3,1,0.7,1.3,1.3c0.3,0.5,0.5,1.2,0.5,1.9c0,1.1-0.2,1.9-0.7,2.6
		c-0.5,0.7-1.2,1.2-2.1,1.7L222.9,147.4z M217,137.3c0-0.4-0.1-0.7-0.2-0.9c-0.1-0.3-0.4-0.5-0.8-0.6c-0.3-0.1-0.5-0.2-0.9-0.2
		c-0.3,0-0.7,0-1.2,0h-1.4v3.9h1.1c0.6,0,1.1,0,1.5-0.1c0.4-0.1,0.7-0.2,1-0.4c0.3-0.2,0.4-0.4,0.6-0.7
		C217,138.1,217,137.7,217,137.3 M235.4,147.4h-10.5v-14.5h10.5v2.8h-6.8v2.5h6.3v2.8h-6.3v3.6h6.8V147.4z M250.5,142.8
		c0,1.4-0.6,2.6-1.8,3.5c-1.2,0.9-2.9,1.3-4.9,1.3c-1.2,0-2.2-0.1-3.1-0.3c-0.9-0.2-1.7-0.5-2.5-0.8V143h0.4
		c0.8,0.6,1.6,1.1,2.6,1.4c1,0.3,1.9,0.5,2.8,0.5c0.2,0,0.5,0,0.9-0.1c0.4,0,0.7-0.1,0.9-0.2c0.3-0.1,0.5-0.3,0.7-0.4
		c0.2-0.2,0.3-0.4,0.3-0.8c0-0.3-0.1-0.6-0.4-0.8c-0.3-0.2-0.7-0.4-1.2-0.5c-0.5-0.1-1.1-0.3-1.7-0.4c-0.6-0.1-1.2-0.3-1.7-0.4
		c-1.2-0.4-2.1-0.9-2.6-1.6c-0.5-0.7-0.8-1.5-0.8-2.5c0-1.3,0.6-2.5,1.8-3.3c1.2-0.9,2.8-1.3,4.7-1.3c1,0,1.9,0.1,2.8,0.3
		c0.9,0.2,1.7,0.4,2.4,0.7v3.3h-0.4c-0.6-0.5-1.3-0.9-2.1-1.2c-0.8-0.3-1.7-0.5-2.6-0.5c-0.3,0-0.6,0-0.9,0.1
		c-0.3,0-0.6,0.1-0.9,0.2c-0.3,0.1-0.5,0.2-0.7,0.4c-0.2,0.2-0.3,0.4-0.3,0.7c0,0.4,0.1,0.7,0.4,0.9c0.3,0.2,0.8,0.4,1.7,0.6
		c0.5,0.1,1,0.2,1.5,0.3c0.5,0.1,1,0.2,1.6,0.4c1.1,0.4,1.9,0.9,2.5,1.5C250.2,141,250.5,141.8,250.5,142.8 M263.5,135.7h-3.8v11.7
		h-3.7v-11.7H252v-2.8h11.4V135.7z M275.9,147.4h-10.5v-14.5h10.5v2.8h-6.8v2.5h6.3v2.8h-6.3v3.6h6.8V147.4z M118.4,140.3
		c0,1.3-0.3,2.6-0.9,3.6c-0.6,1.1-1.4,1.9-2.3,2.5c-0.7,0.4-1.5,0.7-2.3,0.9c-0.8,0.2-1.8,0.3-3,0.3h-5.1V133h5.3
		c1.2,0,2.2,0.1,3.1,0.3c0.9,0.2,1.6,0.5,2.2,0.8c1,0.6,1.8,1.4,2.4,2.5C118.1,137.7,118.4,138.9,118.4,140.3 M114.5,140.3
		c0-1-0.2-1.8-0.5-2.4c-0.3-0.7-0.9-1.2-1.6-1.6c-0.4-0.2-0.8-0.3-1.2-0.4c-0.4-0.1-1-0.1-1.8-0.1h-0.9v9.1h0.9c0.9,0,1.5,0,2-0.1
		c0.4-0.1,0.8-0.2,1.2-0.4c0.7-0.4,1.2-0.9,1.5-1.6C114.3,142,114.5,141.2,114.5,140.3 M131.4,147.5h-10.5V133h10.5v2.8h-6.8v2.5
		h6.3v2.8h-6.3v3.6h6.8V147.5z M144,147.5h-9.8V133h3.7v11.7h6V147.5z M155.8,147.5H146V133h3.7v11.7h6V147.5z"/>
</g>
</svg>
