<?xml version="1.0" encoding="utf-8"?>
<!-- Generator: Adobe Illustrator 27.7.0, SVG Export Plug-In . SVG Version: 6.00 Build 0)  -->
<svg version="1.1" id="Layer_1" xmlns="http://www.w3.org/2000/svg" xmlns:xlink="http://www.w3.org/1999/xlink" x="0px" y="0px"
	 viewBox="0 0 361.2 228.2" style="enable-background:new 0 0 361.2 228.2;" xml:space="preserve">
<style type="text/css">
	.st0{fill-rule:evenodd;clip-rule:evenodd;fill:#FFFFFE;}
	.st1{fill-rule:evenodd;clip-rule:evenodd;fill:#0072AD;}
	.st2{fill-rule:evenodd;clip-rule:evenodd;fill:#007F46;}
	.st3{fill-rule:evenodd;clip-rule:evenodd;fill:#9F875E;}
</style>
<g>
	<path class="st0" d="M125.2,65.7l0,90.7l90.5-90.7H125.2z"/>
	<path class="st1" d="M236.1,195.8l-0.1-70.7l-79.9,81.2c2.6,0,5.4-0.1,6.9,0.1c0.8,0.1,1.5,0.2,2.1,0.3c0.5,0.1,1.6,0.4,2.4,0.7
		c1.2,0.4,2.3,1,3.3,1.6c1.6,1,2.9,2.2,3.8,3.1c0.7,0.7,1.7,2.1,2.6,3.5c1.6,2.2,3.2,4.5,3.2,4.5c1-1.4,2-2.8,2.9-4
		c1.3-1.8,2.4-3.4,3.5-4.5c0.8-0.8,1.7-1.6,2.5-2.1c0.5-0.4,3.1-2,5.8-2.6c1.9-0.5,3.1-0.5,6.8-0.5c5.7,0,15.9,0,23.5,0
		C231.5,206.4,236.1,201.6,236.1,195.8z"/>
	<path class="st2" d="M215.7,65.7l-90.5,90.7l0,39.5c0,5.8,4.6,10.5,10.3,10.5l20.6,0l79.9-81.2V65.7H215.7z"/>
	<path class="st3" d="M144.7,8.4c0.5,0,0.9-0.1,1.2-0.2c0.3-0.1,0.5-0.3,0.7-0.6c0.1-0.2,0.2-0.5,0.3-0.8c0-0.3,0.1-0.6,0.1-0.9
		c0-0.5,0-0.9-0.1-1.3c-0.1-0.4-0.2-0.7-0.3-0.9c-0.2-0.2-0.4-0.4-0.7-0.5c-0.3-0.1-0.6-0.2-1.1-0.2c-0.1,0-0.2,0-0.4,0
		c-0.1,0-0.2,0-0.4,0v5.3H144.7z M140,3.1V2.8h2.6c0.5,0,0.9,0,1.4,0c0.5,0,0.9,0,1.4,0c0.4,0,0.9,0,1.4,0.1
		c0.5,0.1,0.9,0.3,1.3,0.5c0.4,0.2,0.7,0.5,1,0.9c0.3,0.4,0.4,0.9,0.4,1.4c0,0.5-0.1,0.9-0.3,1.2c-0.2,0.3-0.5,0.6-0.8,0.8
		c-0.3,0.2-0.7,0.4-1.1,0.5c-0.4,0.1-0.8,0.2-1.2,0.2v0.1c0.6,0.1,1,0.2,1.5,0.3c0.4,0.1,0.8,0.3,1.1,0.5c0.3,0.2,0.6,0.5,0.8,0.9
		c0.2,0.4,0.3,0.9,0.3,1.5c0.1,0.7,0.1,1.3,0.1,1.7c0,0.4,0.1,0.8,0.1,1c0.1,0.2,0.1,0.4,0.3,0.5c0.1,0.1,0.3,0.1,0.5,0.1
		c0.2,0,0.4-0.1,0.6-0.2c0.1-0.1,0.3-0.3,0.4-0.4l0.2,0.2c-0.1,0.1-0.2,0.2-0.3,0.3c-0.1,0.1-0.2,0.2-0.4,0.2
		c-0.1,0.1-0.3,0.1-0.5,0.2c-0.2,0-0.5,0.1-0.8,0.1c-0.6,0-1.1-0.1-1.5-0.3c-0.4-0.2-0.6-0.5-0.8-0.7c-0.2-0.3-0.3-0.6-0.3-1
		c0-0.4-0.1-0.7-0.1-1c0-0.5-0.1-0.9-0.1-1.4c0-0.4-0.1-0.8-0.3-1.2c-0.1-0.3-0.4-0.6-0.7-0.8c-0.3-0.2-0.7-0.3-1.2-0.3H144v6.2h1.6
		v0.2H140v-0.2h1.6V3.1H140z"/>
	<path class="st3" d="M162.4,2.8v2.9h-0.2c-0.1-0.2-0.2-0.4-0.3-0.7c-0.1-0.3-0.3-0.6-0.6-0.9c-0.2-0.3-0.6-0.5-0.9-0.7
		c-0.4-0.2-0.9-0.3-1.4-0.3h-2.7v5.3h0.9c0.4,0,0.8-0.1,1.1-0.2c0.3-0.1,0.5-0.3,0.7-0.5c0.2-0.2,0.3-0.5,0.5-0.8
		c0.1-0.3,0.2-0.7,0.3-1.1h0.2v5.3h-0.2c-0.1-0.3-0.2-0.7-0.3-1c-0.1-0.3-0.3-0.6-0.4-0.8c-0.2-0.2-0.4-0.4-0.7-0.6
		c-0.3-0.1-0.6-0.2-1-0.2h-1.1v6.2h2.8c0.5,0,1-0.1,1.4-0.3c0.4-0.2,0.8-0.4,1.1-0.7c0.3-0.3,0.6-0.7,0.8-1.1
		c0.2-0.4,0.4-0.9,0.5-1.4h0.2v3.8h-10.8v-0.2h1.6V3.1h-1.6V2.8H162.4z"/>
	<path class="st3" d="M174.6,6.3c-0.3-1.1-0.7-2-1.3-2.6c-0.6-0.6-1.4-0.9-2.3-0.9c-0.8,0-1.4,0.2-1.9,0.5c-0.5,0.3-0.8,0.7-1.1,1.2
		c-0.3,0.5-0.4,1-0.5,1.7c-0.1,0.6-0.1,1.3-0.1,1.9v1.5c0,1,0.1,1.9,0.2,2.6c0.1,0.7,0.3,1.3,0.6,1.7c0.3,0.4,0.7,0.7,1.1,0.9
		c0.5,0.2,1,0.3,1.6,0.3c0.5,0,0.9-0.1,1.2-0.3c0.3-0.2,0.5-0.4,0.7-0.8c0.2-0.3,0.3-0.7,0.3-1.2c0-0.4,0.1-0.9,0.1-1.5v-0.7h-1.7
		v-0.2h5.2v0.2h-1.1v3.9h-0.3c0-0.1-0.1-0.2-0.2-0.3c-0.1-0.1-0.2-0.1-0.4-0.1c-0.3,0-0.5,0.1-0.8,0.2c-0.2,0.1-0.5,0.2-0.8,0.4
		c-0.3,0.1-0.6,0.2-1,0.4c-0.4,0.1-0.8,0.2-1.3,0.2c-0.8,0-1.6-0.2-2.4-0.5c-0.8-0.3-1.4-0.8-2-1.3c-0.6-0.6-1-1.2-1.4-2
		c-0.3-0.8-0.5-1.6-0.5-2.5c0-1,0.2-1.9,0.6-2.6c0.4-0.8,0.9-1.5,1.5-2c0.6-0.6,1.3-1,2-1.3c0.7-0.3,1.5-0.5,2.2-0.5
		c0.3,0,0.7,0,1,0.1c0.3,0.1,0.6,0.1,0.9,0.2c0.3,0.1,0.5,0.1,0.7,0.2c0.2,0.1,0.4,0.1,0.5,0.1c0.2,0,0.3,0,0.3-0.1
		c0.1,0,0.1-0.1,0.2-0.3h0.3v3.5H174.6z"/>
	<path class="st3" d="M183.2,2.8v0.2h-1.6v11.8h1.6v0.2h-5.6v-0.2h1.6V3.1h-1.6V2.8H183.2z"/>
	<path class="st3" d="M187.5,11.9c0.1,0.8,0.3,1.4,0.6,1.9c0.3,0.5,0.7,0.8,1.1,1c0.5,0.2,1,0.3,1.6,0.3c0.8,0,1.5-0.2,2-0.5
		c0.5-0.3,0.8-0.8,1.1-1.3c0.2-0.6,0.4-1.2,0.4-2c0.1-0.8,0.1-1.6,0.1-2.5c0-0.8,0-1.6-0.1-2.3c-0.1-0.7-0.2-1.4-0.4-1.9
		c-0.2-0.6-0.6-1-1.1-1.3c-0.5-0.3-1.1-0.5-2-0.5c-0.8,0-1.4,0.2-1.9,0.5c-0.5,0.3-0.8,0.7-1.1,1.3c-0.2,0.5-0.4,1.2-0.5,2
		c-0.1,0.8-0.1,1.6-0.1,2.5C187.3,10.2,187.4,11.2,187.5,11.9z M185.2,6.3c0.4-0.8,0.9-1.5,1.5-2c0.6-0.6,1.3-1,2-1.3
		c0.8-0.3,1.5-0.5,2.2-0.5c0.8,0,1.5,0.1,2.3,0.4c0.8,0.3,1.4,0.7,2,1.3c0.6,0.5,1.1,1.2,1.4,2c0.4,0.8,0.5,1.7,0.5,2.7
		c0,0.9-0.2,1.7-0.5,2.5c-0.3,0.8-0.8,1.5-1.4,2c-0.6,0.6-1.3,1-2,1.4c-0.8,0.3-1.6,0.5-2.4,0.5c-0.8,0-1.6-0.2-2.4-0.5
		c-0.8-0.3-1.4-0.8-2-1.3c-0.6-0.6-1-1.2-1.4-2c-0.3-0.8-0.5-1.6-0.5-2.5C184.6,8,184.8,7.1,185.2,6.3z"/>
	<path class="st3" d="M202.5,2.8l5.6,8.2h0V3.1h-1.6V2.8h3.4v0.2h-1.6v12H208l-7.6-11h0v10.8h1.6v0.2h-3.4v-0.2h1.6V3.1h-1.6V2.8
		H202.5z"/>
	<path class="st3" d="M221.2,2.8v2.9H221c-0.1-0.2-0.2-0.4-0.3-0.7c-0.1-0.3-0.3-0.6-0.6-0.9c-0.2-0.3-0.6-0.5-0.9-0.7
		c-0.4-0.2-0.9-0.3-1.4-0.3h-2.7v5.3h0.9c0.4,0,0.8-0.1,1.1-0.2c0.3-0.1,0.5-0.3,0.7-0.5c0.2-0.2,0.3-0.5,0.5-0.8
		c0.1-0.3,0.2-0.7,0.3-1.1h0.2v5.3h-0.2c-0.1-0.3-0.2-0.7-0.3-1c-0.1-0.3-0.3-0.6-0.4-0.8c-0.2-0.2-0.4-0.4-0.7-0.6
		c-0.3-0.1-0.6-0.2-1-0.2h-1.1v6.2h2.8c0.5,0,1-0.1,1.4-0.3c0.4-0.2,0.8-0.4,1.1-0.7c0.3-0.3,0.6-0.7,0.8-1.1
		c0.2-0.4,0.4-0.9,0.5-1.4h0.2v3.8h-10.8v-0.2h1.6V3.1h-1.6V2.8H221.2z"/>
	<path class="st3" d="M126.9,29.2h5.2l-2.7-6.3L126.9,29.2z M123.3,35.7l6.8-16.8h1.2l7.2,16.8h2v0.3h-7.6v-0.3h2.1l-2.6-6.2h-5.5
		l-2.5,6.2h2v0.3H122v-0.3H123.3z"/>
	<path class="st3" d="M147.3,35.8c0.5,0,0.9-0.1,1.3-0.2c0.4-0.1,0.7-0.3,1-0.7c0.3-0.3,0.5-0.8,0.6-1.4c0.1-0.6,0.2-1.3,0.2-2.3
		c0-0.3,0-0.6-0.1-1.1c0-0.4-0.2-0.9-0.4-1.3c-0.2-0.4-0.5-0.8-0.9-1.1c-0.4-0.3-1-0.5-1.8-0.5H146v8.4
		C146.4,35.8,146.8,35.8,147.3,35.8z M146.9,27.1c0.7,0,1.2-0.1,1.6-0.3c0.4-0.2,0.7-0.4,0.9-0.8c0.2-0.3,0.3-0.7,0.4-1.1
		c0.1-0.4,0.1-0.8,0.1-1.2c0-0.7,0-1.3-0.1-1.7c-0.1-0.5-0.2-0.9-0.5-1.2c-0.2-0.3-0.5-0.6-0.9-0.7c-0.4-0.2-0.8-0.2-1.4-0.2
		c-0.2,0-0.3,0-0.5,0c-0.2,0-0.3,0-0.5,0v7.1H146.9z M140.6,19.9v-0.3h3.4c0.6,0,1.3,0,1.9,0c0.6,0,1.3,0,1.9,0
		c0.6,0,1.2,0.1,1.9,0.2c0.6,0.1,1.2,0.3,1.8,0.6c0.5,0.3,1,0.7,1.3,1.2c0.3,0.5,0.5,1.1,0.5,1.9c0,0.7-0.2,1.2-0.5,1.7
		c-0.3,0.5-0.8,0.8-1.2,1.1c-0.5,0.3-1,0.5-1.5,0.7c-0.5,0.2-1,0.3-1.3,0.3v0.1c0.6,0,1.2,0.1,1.8,0.3c0.6,0.2,1.2,0.4,1.8,0.7
		c0.5,0.3,1,0.8,1.3,1.3c0.3,0.5,0.5,1.2,0.5,2c0,0.9-0.2,1.6-0.7,2.2c-0.4,0.6-1,1-1.6,1.4c-0.6,0.3-1.3,0.6-2.1,0.7
		c-0.7,0.1-1.4,0.2-2,0.2c-0.6,0-1.3,0-1.9,0c-0.6,0-1.3,0-1.9,0h-3.4v-0.3h2.1V19.9H140.6z"/>
	<path class="st3" d="M162.5,27.1c0.7,0,1.2-0.1,1.6-0.3c0.4-0.2,0.7-0.4,0.9-0.8c0.2-0.3,0.3-0.7,0.4-1.1c0.1-0.4,0.1-0.8,0.1-1.2
		c0-0.7,0-1.3-0.1-1.7c-0.1-0.5-0.2-0.9-0.5-1.2c-0.2-0.3-0.5-0.5-0.9-0.7c-0.4-0.2-0.8-0.2-1.4-0.2c-0.2,0-0.3,0-0.5,0
		c-0.2,0-0.3,0-0.5,0v7.1H162.5z M156.2,19.9v-0.3h3.4c0.6,0,1.3,0,1.9,0c0.6,0,1.3,0,1.9,0c0.6,0,1.2,0.1,1.9,0.2
		c0.7,0.1,1.3,0.3,1.8,0.6c0.5,0.3,1,0.7,1.4,1.2c0.4,0.5,0.5,1.1,0.5,1.9c0,0.6-0.1,1.1-0.4,1.6c-0.3,0.4-0.6,0.8-1.1,1.1
		c-0.4,0.3-0.9,0.5-1.4,0.6c-0.5,0.1-1.1,0.2-1.6,0.3v0.1c0.7,0.1,1.4,0.3,2,0.4c0.6,0.1,1.1,0.3,1.5,0.6c0.4,0.3,0.8,0.7,1,1.2
		c0.3,0.5,0.4,1.2,0.5,2c0.1,1,0.1,1.7,0.2,2.3c0,0.6,0.1,1,0.2,1.4c0.1,0.3,0.2,0.5,0.3,0.6c0.1,0.1,0.4,0.2,0.6,0.2
		c0.3,0,0.6-0.1,0.8-0.3c0.2-0.2,0.4-0.3,0.5-0.5l0.2,0.2c-0.2,0.2-0.3,0.3-0.4,0.4c-0.1,0.1-0.3,0.2-0.5,0.3
		c-0.2,0.1-0.4,0.2-0.7,0.2c-0.3,0.1-0.6,0.1-1,0.1c-0.8,0-1.5-0.1-2-0.4c-0.5-0.3-0.8-0.6-1-1c-0.2-0.4-0.4-0.8-0.4-1.3
		c-0.1-0.5-0.1-0.9-0.1-1.3c0-0.6-0.1-1.2-0.1-1.8c-0.1-0.6-0.2-1.1-0.4-1.6c-0.2-0.5-0.5-0.8-0.9-1.1c-0.4-0.3-0.9-0.4-1.7-0.4
		h-1.5v8.3h2.1v0.3h-7.5v-0.3h2.1V19.9H156.2z"/>
	<path class="st3" d="M180,19.6v0.3h-2.1v10.4c0,0.7,0,1.4,0.1,2.1c0.1,0.7,0.2,1.3,0.5,1.8c0.2,0.5,0.6,1,1.1,1.3
		c0.5,0.3,1.2,0.5,2,0.5c0.8,0,1.1-0.1,1.6-0.3c0.6-0.2,1-0.4,1.4-0.8c0.4-0.3,0.6-0.7,0.8-1.1c0.2-0.4,0.3-0.8,0.4-1.2
		c0.1-0.4,0.1-0.8,0.2-1.1c0-0.3,0-0.6,0-0.9L186,19.9h-1.5v-0.3h4.5v0.3h-2.1v10.8c0,0.2,0,0.6,0,0.9c0,0.4-0.1,0.8-0.2,1.2
		c-0.1,0.4-0.3,0.8-0.5,1.2c-0.2,0.4-0.5,0.8-0.9,1.1c-0.4,0.3-0.9,0.6-1.5,0.8c-0.6,0.2-1.4,0.3-2.3,0.3c-1.5,0-2.7-0.2-3.5-0.5
		c-0.9-0.3-1.6-0.8-2.1-1.3c-0.5-0.5-0.8-1.1-0.9-1.8c-0.2-0.7-0.2-1.4-0.2-2.1V19.9h-2.1v-0.3H180z"/>
	<path class="st3" d="M196.2,19.9c-0.6,0-1.1,0.1-1.6,0.3c-0.5,0.2-0.9,0.4-1.2,0.7c-0.3,0.3-0.6,0.7-0.9,1.1
		c-0.3,0.4-0.5,0.9-0.7,1.5h-0.3v-3.9h11.8l-9.2,16.1h4.1c0.6,0,1.2-0.1,1.8-0.3c0.6-0.2,1.1-0.5,1.6-0.8c0.5-0.4,0.9-0.9,1.3-1.5
		c0.4-0.6,0.6-1.4,0.8-2.3h0.3v5.2h-13.7l9.1-16.1H196.2z"/>
	<path class="st3" d="M211.8,19.9c-0.6,0-1.1,0.1-1.6,0.3c-0.5,0.2-0.9,0.4-1.2,0.7c-0.3,0.3-0.6,0.7-0.9,1.1
		c-0.3,0.4-0.5,0.9-0.7,1.5h-0.3v-3.9h11.8l-9.2,16.1h4.1c0.6,0,1.2-0.1,1.8-0.3c0.6-0.2,1.1-0.5,1.6-0.8c0.5-0.4,0.9-0.9,1.3-1.5
		c0.4-0.6,0.6-1.4,0.8-2.3h0.3v5.2h-13.7l9.1-16.1H211.8z"/>
	<path class="st3" d="M225.6,31.9c0.2,1.1,0.5,1.9,0.9,2.5c0.4,0.6,0.9,1.1,1.5,1.3c0.6,0.2,1.3,0.4,2.2,0.4c1.1,0,2-0.2,2.6-0.6
		c0.6-0.4,1.1-1,1.4-1.8c0.3-0.7,0.5-1.6,0.6-2.7c0.1-1,0.1-2.1,0.1-3.3c0-1.1,0-2.1-0.1-3.1c-0.1-1-0.3-1.8-0.6-2.6
		c-0.3-0.7-0.8-1.3-1.4-1.8c-0.6-0.4-1.5-0.7-2.7-0.7c-1.1,0-1.9,0.2-2.5,0.6c-0.6,0.4-1.1,1-1.5,1.7c-0.3,0.7-0.6,1.6-0.7,2.6
		c-0.1,1-0.2,2.1-0.2,3.4C225.3,29.5,225.4,30.8,225.6,31.9z M222.4,24.3c0.5-1.1,1.2-2,2-2.7c0.8-0.8,1.7-1.3,2.8-1.7
		c1-0.4,2-0.6,3-0.6c1,0,2.1,0.2,3.1,0.6c1,0.4,1.9,1,2.7,1.7c0.8,0.7,1.4,1.6,1.9,2.7c0.5,1.1,0.7,2.2,0.7,3.6
		c0,1.2-0.2,2.3-0.7,3.3c-0.5,1-1.1,2-1.9,2.7c-0.8,0.8-1.7,1.4-2.7,1.9c-1,0.5-2.1,0.7-3.2,0.7c-1.1,0-2.2-0.2-3.2-0.7
		c-1-0.4-1.9-1-2.7-1.8c-0.8-0.8-1.4-1.7-1.9-2.7c-0.5-1-0.7-2.2-0.7-3.4C221.6,26.6,221.8,25.4,222.4,24.3z"/>
	<path class="st3" d="M182.3,79.1c-1.3,0-2.4,1.1-2.4,2.4c0,0,0,0,0,0.1c0,0,0,0,0,0.1l0,0c0,0,0,0,0,0l0,0l0.6,4.1h-0.7h-0.7
		l0.6-4.1c0,0,0,0,0-0.1c0,0,0-0.1,0-0.1h0c0-1.3-1.1-2.4-2.4-2.4c-1.3,0-2.4,1.1-2.4,2.4c0,0.3,0.2,0.5,0.4,0.5s0.4-0.2,0.4-0.5
		c0-0.8,0.7-1.5,1.5-1.5c0.8,0,1.5,0.7,1.5,1.5c0,0,0,0,0,0l-0.7,4.6c0,0.1,0,0.3,0.1,0.4c0.1,0.1,0.2,0.2,0.3,0.2h1.2h1.2
		c0.1,0,0.3-0.1,0.3-0.2c0.1-0.1,0.1-0.2,0.1-0.4l-0.7-4.7c0,0,0,0,0,0h0c0-0.8,0.7-1.5,1.5-1.5c0.8,0,1.5,0.7,1.5,1.5
		c0,0.3,0.2,0.5,0.4,0.5c0.2,0,0.4-0.2,0.4-0.5C184.6,80.2,183.6,79.1,182.3,79.1z"/>
	<path class="st3" d="M178.6,81.5c-0.1-0.5-0.6-0.8-1.1-0.8c-0.5,0-1,0.4-1.1,0.8c0.1,0.5,0.6,0.8,1.1,0.8
		C178,82.4,178.5,82,178.6,81.5z"/>
	<path class="st3" d="M182.2,80.7c-0.5,0-1,0.4-1.1,0.8c0.1,0.5,0.6,0.8,1.1,0.8s1-0.4,1.1-0.8C183.2,81,182.7,80.7,182.2,80.7z"/>
	<path class="st3" d="M179.9,87.8c-0.7,0-1.3,0.3-1.4,0.7h2.9C181.1,88.1,180.6,87.8,179.9,87.8z"/>
	<path class="st3" d="M179.9,89.7c0.8,0,1.5-0.4,1.7-0.9h-3.5C178.3,89.3,179,89.7,179.9,89.7z"/>
	<path class="st3" d="M236,195.9c0,5.8-4.6,10.4-10.3,10.4h-26.1c-0.4,0-0.8,0-1.3,0.1v-58.7c0.1-4.6-1.2-8.9-1.7-10.1
		c-0.1-0.2-2.4-8.8-2.4-8.8s0.7-0.5,1-0.8l2-1.9c1.3-1.2,2.1-2.8,2.3-4.6l0.4-3.8c0.1-0.3,0-0.6,0-0.8l0.3,0c0.2,0,0.4-0.1,0.4-0.3
		l0.1-1c0-0.2-0.1-0.4-0.3-0.4l-0.3,0c0.1-0.5,0.1-1,0.1-1.5l0.3,0c0.2,0,0.4-0.1,0.4-0.3l0.1-1c0-0.2-0.1-0.4-0.3-0.4l-0.3,0
		c0.2-0.4,0.3-0.9,0.3-1.1l0.2-1.7c0.2-2.8-0.4-4.9-1.8-6.3c-1.1-1.1-2.6-1.7-4-2.2c-0.3-0.1-0.6-0.2-1-0.4c-3.2-1.2-6.7-3.9-9-6.9
		c0-0.1,0-0.1,0-0.2l0.1-0.7c11.4-0.9,19.3-4.4,19.3-8.7c0-1-0.5-2-1.3-2.9c0.5-0.6,1-1.2,1.2-2c0.2-0.8,0.2-1.6,0.1-2.4
		c0-0.3-0.1-0.6-0.2-0.8c-0.4-1.2-1.2-2.2-2.1-2.9c-0.7-0.6-1.5-1.1-2.4-1.5c-1-0.5-2.1-0.9-3.1-1.3c-1.2-0.4-2.5-0.7-3.8-1
		c-1.4-0.3-2.9-0.6-4.4-0.7c-1.6-0.2-3.2-0.3-4.8-0.4c-0.7,0-1.4-0.1-2.1-0.1v-0.7c0-0.7-0.5-1.2-1.2-1.2H236V195.9z M196.6,206.6
		c-1.4,0.3-2.8,0.7-4.2,1.3c0-0.2,0-0.4-0.1-0.5c-0.2-0.8-0.9-3.3-1.2-4.5c0-0.1,0-0.3,0-0.4c0.3-0.6,0.3-1.4,0.1-2
		c-0.1-0.4-0.2-0.9-0.2-1.4v-5.2c0-0.1,0-0.3,0-0.4l2.9-12.4c0.1-0.5,0.1-1,0-1.5l-1-5.3c-0.1-0.3,0-0.5,0-0.8c0.5-2,2.3-8.8,3.7-15
		V206.6z M190.5,207.8c-0.3,0.1-0.6,0.1-1,0.1c-0.2,0-0.3,0-0.5,0c-0.5,0-0.8,0-1.1,0.1c-0.2,0-0.4,0.1-0.6,0.1c-0.1,0-0.2,0-0.3,0
		c-0.1,0-0.2,0-0.3,0l-0.1,0c-0.2,0-0.3,0-0.7-0.1c-0.2-0.1-0.3-0.1-0.6-0.1h-0.1c-0.2,0-0.5,0-0.6,0c-0.2,0-0.5-0.1-0.7-0.2
		c0,0,0,0,0-0.1c0-0.2,0.1-0.4,0.2-0.6l1.2-2.4c0.4-0.8,0.5-2.3,0.5-2.9c0-0.6-0.1-2.2-0.1-2.5l-0.2-9.8c0-0.3,0-0.7-0.1-1l-2.3-8.1
		c-0.1-0.3-0.1-0.6,0-0.9l1.3-5.7c0.1-0.4,0.1-0.9,0.1-1.3l-2.5-18.9c0,0,0-0.1,0-0.3c0.1-0.9,0.8-3.1,3.7-3.7
		c1.6-0.4,3.5-0.7,5.7-1c0.2,0,0.4-0.1,0.6-0.1c2-0.3,4.2-0.6,4.5-4.7c0.2,1.6,0.3,3.3,0.2,5.1c-0.4,5.1-4.5,21-5.3,24.1
		c-0.1,0.5-0.2,1.1-0.1,1.6l1,5.3c0,0.3,0,0.5,0,0.8l-2.9,12.4c-0.1,0.3-0.1,0.5-0.1,0.8v5.2c0,0.7,0.1,1.3,0.3,2
		c0.1,0.2,0.1,0.5,0,0.7c-0.2,0.5-0.3,1.1-0.1,1.7C189.7,204.6,190.4,207.2,190.5,207.8C190.6,207.8,190.5,207.8,190.5,207.8z
		 M182.6,206.1c-0.3,0.4-0.4,0.9-0.5,1.4c-0.1,0.9-2.2,0.9-2.3,0c0-0.5-0.2-1-0.4-1.3l-1.1-2.4c-0.2-0.3-0.3-1.4-0.3-2
		c0-0.7,0.1-2.3,0.1-2.5l0.2-9.8c0-0.2,0-0.3,0.1-0.5l2.3-8.1c0.2-0.6,0.2-1.2,0-1.8l-1.3-5.7c-0.1-0.2-0.1-0.4,0-0.7L181,160
		l1.7,12.6c0,0.2,0,0.4,0,0.7l-1.3,5.7c-0.1,0.6-0.1,1.2,0,1.8l2.3,8.1c0,0.2,0.1,0.3,0.1,0.5l0.2,9.8c0,0.3,0,1.9,0.1,2.6
		c0,0.6-0.1,1.7-0.3,2L182.6,206.1z M177.3,207.9c-0.1,0-0.4,0-0.7,0c-0.4,0-0.5,0-0.6,0.1c-0.4,0.1-0.4,0.1-0.7,0.1
		c-0.2,0-0.4,0-0.7,0c-0.3,0-0.4,0-0.6-0.1c-0.2,0-0.5-0.1-0.8-0.1c-0.1,0-0.1,0-0.2,0c-0.2,0-0.3,0-0.5,0c-0.4,0-0.7,0.1-1-0.1
		c0,0,0,0-0.1,0c0.3-1.2,0.9-3.3,1.2-4.4c0.2-0.6,0.1-1.2-0.1-1.7c-0.1-0.2-0.1-0.5,0-0.7c0.2-0.6,0.3-1.3,0.3-2v-5.2
		c0-0.3,0-0.6-0.1-0.8l-2.9-12.4c-0.1-0.3-0.1-0.5,0-0.8l1-5.3c0.1-0.5,0.1-1.1-0.1-1.6c-0.8-3.1-4.9-19-5.3-24.1
		c-0.1-1.8,0-3.5,0.2-5.1c0.3,4.1,2.5,4.4,4.5,4.7c0.2,0,0.4,0,0.6,0.1c2.2,0.3,4.1,0.7,5.7,1c2.9,0.7,3.5,2.8,3.7,3.7
		c0,0.1,0,0.2,0,0.2l-2.5,18.9c-0.1,0.4,0,0.9,0.1,1.3l1.3,5.7c0.1,0.3,0.1,0.6,0,0.9l-2.3,8.1c-0.1,0.3-0.1,0.7-0.1,1l-0.2,9.8
		c0,0.2,0,1.8-0.1,2.5c0,0.6,0.1,2.1,0.5,2.9l1.2,2.5l0,0.1c0.1,0.2,0.2,0.3,0.2,0.6C177.8,207.8,177.5,207.8,177.3,207.9z M171,199
		c0,0.5-0.1,0.9-0.2,1.4c-0.2,0.7-0.2,1.4,0.1,2c0.1,0.1,0.1,0.3,0,0.4c-0.4,1.3-1.1,4.1-1.2,4.5c-0.1,0.3-0.1,0.6,0,0.9
		c-1.3-0.7-2.7-1.2-4.2-1.5v-48.5c1.4,6.2,3.2,13.1,3.7,15c0.1,0.3,0.1,0.5,0,0.8l-1,5.3c-0.1,0.5-0.1,1,0,1.5l2.9,12.4
		c0,0.1,0,0.3,0,0.4V199z M163.7,147.8v58.7c-0.7-0.1-1.4-0.1-2-0.1h-26.1c-5.7,0-10.3-4.7-10.3-10.4V65.7h54.2
		c-0.7,0-1.2,0.5-1.2,1.2v0.7c-1.6,0-3.1,0.1-4.7,0.3c-1.4,0.1-2.9,0.3-4.3,0.6c-1.3,0.2-2.6,0.5-3.9,0.8c-1.1,0.3-2.2,0.6-3.3,1
		c-0.9,0.4-1.9,0.8-2.7,1.2c-0.7,0.4-1.4,0.9-2.1,1.4c-0.5,0.5-1,1-1.3,1.6c-0.4,0.7-0.6,1.4-0.7,2.2c0,0.3-0.1,0.6,0,0.9
		c0,0.7,0.2,1.3,0.5,1.9c0.1,0.3,0.3,0.5,0.5,0.7c0,0,0.3,0.4,0.3,0.4c-0.8,0.9-1.3,1.9-1.3,2.9c0,4.3,7.9,7.8,19.3,8.7l0,0.6
		c0,0,0,0,0,0c-2.2,3-5.7,5.7-8.9,6.9c-0.3,0.1-0.6,0.2-1,0.3c-1.5,0.5-3,1.1-4.1,2.2c-1.4,1.5-2,3.7-1.8,6.6l0.4,3.7
		c0,0.5,0.1,0.9,0.3,1.4l-0.1,0c-0.2,0-0.4,0.2-0.3,0.5l0.2,1.5c0,0.2,0.2,0.3,0.3,0.3c-0.1,0.7,0,1.3,0.1,2l1.3,5.4
		c0.3,2.8,3.7,5.6,6.7,5.7c-1,3.8-2.1,7.7-2.1,8C164.9,138.9,163.5,143.2,163.7,147.8z M202.1,79.9c-3.9-3-12.3-5-22.3-5
		c-9.9,0-18.3,2-22.3,5c-0.6-0.6-0.9-1.3-0.9-2c0-4,10.8-7.4,23.2-7.4c12.4,0,23.2,3.5,23.2,7.4C203,78.6,202.7,79.2,202.1,79.9z
		 M185.4,89.4c0.4-0.9,0.6-1.8,0.8-2.9c7.3-0.7,12.9-2.4,15.9-4.7c0.6,0.6,0.9,1.3,0.9,2c0,3.3-7.8,6.4-17.7,7.2L185.4,89.4z
		 M173.5,86.5c0.1,1,0.4,2,0.8,2.9l0.1,1.6c-10-0.8-17.7-3.9-17.7-7.2c0-0.7,0.3-1.3,0.9-2C160.6,84.1,166.2,85.8,173.5,86.5z
		 M187.6,80.9c-0.1-0.5-0.3-0.8-0.6-1l0-0.8c0-0.3-0.1-0.5-0.4-0.6c-3.7-2.2-9.8-2.2-13.5,0c-0.2,0.1-0.4,0.4-0.4,0.6l0,0.7
		c-0.8,0.6-0.7,2.2-0.7,2.7c0.1,0.7,0.3,1.8,0.8,2.4c-6.3-0.7-11.5-2.2-14.2-4.1c3.7-2.6,12-4.5,21.2-4.5c9.1,0,17.5,1.9,21.2,4.5
		c-2.7,1.9-7.9,3.5-14.2,4.1c0.1-0.2,0.3-0.4,0.4-0.6c0.2-0.5,0.4-1.1,0.5-1.8C187.7,82,187.7,81.4,187.6,80.9z M184.8,84.7
		c0.1,2.3-0.6,4.3-1.7,5.5c-0.8,0.9-1.9,1.3-3.3,1.3c-1.3,0-2.4-0.4-3.3-1.3c-1.2-1.2-1.8-3.2-1.7-5.5c0-0.2-0.1-0.4-0.2-0.5
		c-0.1-0.1-0.3-0.2-0.5-0.2l-0.2,0c-0.1-0.2-0.4-0.7-0.5-1.5c-0.1-0.6,0-1.1,0.1-1.3c0.3-0.1,0.6-0.4,0.6-0.7l0-0.9
		c3.2-1.7,8.1-1.7,11.3,0l0,0.9c0,0.3,0.3,0.6,0.6,0.7c0.1,0.2,0.1,0.7,0.1,1.3c-0.1,0.8-0.3,1.3-0.5,1.5l-0.2,0
		c-0.2,0-0.4,0.1-0.5,0.2C184.9,84.3,184.8,84.5,184.8,84.7z M175.3,91c0.1,0.1,0.2,0.2,0.2,0.3c1.1,1.2,2.6,1.8,4.3,1.8h0.1
		c1.7,0,3.2-0.6,4.3-1.8c0.1-0.1,0.2-0.2,0.2-0.3l-0.2,2.1c-0.1,0.8-0.6,1.4-1.3,1.6l-3.1,0.8l-3.1-0.8c-0.5-0.1-0.8-0.4-1.1-0.8
		c-0.1-0.2-0.3-0.4-0.3-1L175.3,91z M183.8,102.2c-1-0.9-2.4-1.5-3.9-1.5c-1.4,0-2.7,0.5-3.7,1.3l-4.4-4.1c1.2-1,2.3-2.1,3.3-3.3
		c0.4,0.4,0.8,0.8,1.4,0.9l1.6,0.4v1.9h1.7h1.7V96l1.7-0.4c0.7-0.2,1.3-0.6,1.6-1.2c0.9,1.1,2,2.2,3.2,3.2L183.8,102.2z
		 M192.2,111.3l-0.1-0.4c0-0.2-0.3-0.4-0.5-0.4c-0.2,0-0.4,0.3-0.4,0.5l0.5,3.5c-0.2,0-0.3,0.1-0.3,0.3l-0.1,1
		c0,0.2,0.1,0.4,0.3,0.4l0.1,0c-0.1,0.8,0.1,2.7,0.1,2.7c0,0,0,2.2-1.7,3.5L186,126l1.5-4.6c0,0,0,0,0,0c0.7-0.5,1.4-1.1,2-1.7
		c0.2-0.2,0.4-0.4,0.5-0.7c0.1-0.2,0-0.4-0.1-0.5c0.4-0.3,0.8-0.7,0.9-0.7c0.2-0.1,0.2-0.4,0.1-0.5c0-0.1-0.2-0.3-0.3-0.6
		c0.1-0.1,0.2-0.3,0.2-0.5c0-0.2,0-0.5-0.2-0.7c-0.3-0.3-0.4-0.5-0.6-0.5c-0.1-0.1,0-0.3-0.3-0.5c-0.1-0.1-0.3-0.1-0.3-0.1l2.8-8.6
		l3.2,2.9l1.7-4.3l-5.2-1.3c-0.4-0.1-0.8,0.1-0.9,0.5l-3,9.5l-3.3-3.1c0.6-0.9,0.9-2,0.9-3.2c0-0.9-0.2-1.8-0.6-2.6l4.6-5.1
		c1.3,0.9,2.7,1.6,4,2.1c0.3,0.1,0.7,0.2,1,0.4c1.4,0.5,2.7,1,3.7,2c1.2,1.2,1.7,3.1,1.5,5.6l-0.2,1.7c0,0.3-0.2,0.8-0.3,1.2
		L192.2,111.3z M192.6,114.5L192.6,114.5l-0.2-1.5l7,0.6c0,0.5,0,1-0.1,1.5L192.6,114.5z M196.3,117.9l0.3-1.3l0.8,0.1l0.1,1.3
		l-0.6,0.5L196.3,117.9z M194.5,117.7l0.3-1.2l0.8,0.1l0.1,1.3l-0.6,0.5L194.5,117.7z M190.4,130.4l-2.9,1.9
		c-1.3,0.5-2.4,1.5-3.5,2.4c-0.2,0.2-0.4,0.4-0.6,0.5c-0.5,0.4-1.1,0.8-1.8,1.1l-6.2,2.6c-0.2,0.1-0.4,0.1-0.4,0.1
		c0,0,0-0.1,0.1-0.1c0.2-0.2,0.2-0.5,0.1-0.7c-0.1-0.2-0.4-0.2-0.6-0.1c-0.1,0-0.1,0.1-0.1,0.1c-0.2,0.1-0.3,0.2-0.5,0.2
		c-0.2,0.1-0.3,0.1-0.7,0.3c-0.1,0-0.2,0.1-0.3,0.1c0.1-0.2,0-0.4-0.2-0.5c-0.2-0.1-0.4-0.1-0.6,0c0,0-0.1,0.1-0.1,0.1
		c0,0,0-0.2,0-0.3c0.1-0.1,0.2-0.3,0.4-0.4c0.2-0.1,0.2-0.3,0.2-0.5c0-0.2-0.2-0.3-0.4-0.4c0,0-0.1,0-0.1-0.1
		c-0.1-0.1-0.1-0.3-0.1-0.4c0.1-0.3,0.4-0.5,0.7-0.8l2.7-1.8l1.6-0.9c-1.7-0.1-2.3-1.2-1-1.1c0.3,0,1.2-0.2,2.2-0.4
		c1.5-0.3,3-1,4.3-1.8l1.3-0.8c0,0,0.1-0.1,0.2-0.1l6.4-5.5c2-1.6,2-4.1,2-4.3c-0.1-0.7-0.1-2.1-0.1-2.6l1.1,0.1l0.1,1.3l-0.7,0.5
		l0.8,1l1-0.8l0.8,1l1-0.8l0.8,1l1-0.8l-0.5-0.7l0.3-1.4l0.7,0.1c0.1,0.3,0.1,0.5,0,0.8l-0.4,3.8c-0.2,1.5-0.9,3-2,4l-2,1.9
		C193.3,128.4,190.5,130.4,190.4,130.4z M168.6,132.4L168.6,132.4c0.3-1.2,0.6-2.2,0.7-2.7c0-0.1,0-0.1,0-0.2c0.3,0,0.6-0.1,0.9-0.1
		l-0.6,2.8c0,0.2-1,5-1,8.8c0,3.9,1.7,4.1,3.5,4.3l0.5,0.1c1.8,0.3,3.4,0.6,4.7,0.9c3.1,0.7,3.3,2.5,3.3,2.6c0,0.2,0.2,0.4,0.4,0.4
		h0c0,0,0,0,0,0c0,0,0,0,0,0c0,0,0,0,0,0c0.2,0,0.4-0.2,0.4-0.4c0-0.1,0.1-1.9,3.3-2.6c1.3-0.3,2.9-0.6,4.7-0.9l0.5-0.1
		c1.8-0.2,3.5-0.5,3.5-4.3c0-3.8-0.9-8.6-1-8.8l-0.4-2c0.2-0.1,0.3-0.2,0.5-0.4l0.6,2.4c0,0,0,0.1,0,0.1c0,0.2,1.2,6.1,1.2,10.4
		c0,3.4-0.9,3.5-2.9,3.8c-0.2,0-0.4,0.1-0.6,0.1c-2.3,0.3-4.2,0.7-5.8,1.1c-2.2,0.5-3.5,1.7-4.2,2.9c-0.7-1.2-1.9-2.4-4.2-2.9
		c-1.6-0.4-3.6-0.7-5.8-1.1c-0.2,0-0.4-0.1-0.6-0.1c-2-0.3-2.9-0.4-2.9-3.8C167.5,138.4,168.6,132.6,168.6,132.4z M175.5,133.1
		l-3.1,1.7c-0.4,0.3-0.8,0.7-1,1.3c-0.1,0.4-0.1,0.8,0.1,1.2c0,0,0,0.1,0.1,0.1c-0.1,0.1-0.2,0.2-0.2,0.3c-0.2,0.5-0.2,1,0.1,1.3
		c0.2,0.2,0.4,0.3,0.7,0.3c0.1,0.1,0.3,0.3,0.4,0.3c0.4,0.1,0.8,0,1-0.1c0.3-0.1,0.4-0.2,0.5-0.3c0,0.1,0.1,0.2,0.1,0.2
		c0.1,0.2,0.4,0.3,0.7,0.3c0.2,0,0.4,0,0.7-0.2l6.2-2.6c0,0,0,0,0,0l4.6,6.1c0,0,0.1,0,0.1,0l-2.8-7.2c0,0,0.1,0,0.1-0.1
		c0.2-0.2,0.4-0.4,0.6-0.5c1-0.9,2.1-1.8,3.4-2.3l3-1.9c0,0,0.2-0.1,0.5-0.3l0.3,1.6c0,0,1,5,1,8.6c0,3.1-1,3.2-2.7,3.4l-0.5,0.1
		c-1.8,0.3-3.5,0.6-4.8,0.9c-2.1,0.5-3.1,1.5-3.6,2.3c-0.5-0.8-1.5-1.8-3.6-2.3c-1.3-0.3-3-0.6-4.8-0.9l-0.5-0.1
		c-1.7-0.2-2.7-0.4-2.7-3.4c0-3.7,0.9-8.6,1-8.6l0.6-3.1c2.4-0.4,4.3-1.1,6.2-2l1.6,3.3c-1.4,0.3-3.5,0.7-3.9,1
		C173.8,132.3,175.5,133.1,175.5,133.1z M185.3,122.9l-1.8,5.3c-0.4,0.2-1.3,0.8-2.1,1.2l-1.9-3.2c0.4-0.2,0.8-0.4,1.3-0.6
		c0,0,0,0,0,0c0,0,0,0,0,0c0.6-0.4,1.2-0.7,1.8-1.1C183.6,123.9,184.4,123.4,185.3,122.9z M160.7,116.4l5.9-0.8l0,0
		c0.1,0.1,0.2,0.6,0.3,0.9c0,0.2,0.1,0.3,0.1,0.4c0.1,0.3,0.2,0.8,0.4,1.3c0.3,1.4,0.7,2.9,1.3,3.6c0.7,0.8,1.7,1,2.7,1
		c0.5,0,1.1-0.1,1.6-0.1l0.2,0c1-0.1,3.3-0.8,4.7-1.2c0.4-0.1,0.7-0.2,0.8-0.2c0.1,0,0.1-0.1,0.2-0.1c0,0,0,0,0,0
		c0.3-0.1,1.7-0.9,3-6.2c0-0.1,0.1-0.2,0.1-0.4l0.1-0.3c0,0,0-0.1,0-0.1c0,0,0.1,0,0.1,0c0,0.1,0,0.6,0,0.9c-0.1,1.5-0.1,2,0.2,2.3
		c0.1,0.1,0.2,0.2,0.3,0.2c0.1,0,0.4,0,1.9-0.9c0,0,1.6-1.1,2.9-1.8c0.2-0.1,0.3-0.1,0.4-0.1c0.1,0.1,0.3,0.3,0.6,0.2
		c0.3,0,0.5,0,0.5,0.1c0,0,0.1,0.1,0.1,0.1c0,0.2,0.1,0.4,0.2,0.5c0.1,0.1,0.3,0.1,0.4,0c0.1,0.1,0.2,0.1,0.2,0.2
		c0,0-0.1,0.1-0.2,0.3c-0.1,0.1-0.2,0.2-0.2,0.4c0,0.2,0.1,0.3,0.2,0.4c0.1,0.1,0.2,0.2,0.3,0.3c-0.3,0.2-0.7,0.6-0.9,0.7
		c-0.2,0.1-0.3,0.3-0.2,0.5c0,0.1,0.1,0.3,0.2,0.4c-0.1,0.1-0.2,0.2-0.2,0.2c-2,1.9-4.3,3.3-6.7,4.7c-0.6,0.4-1.2,0.7-1.8,1.1
		c-0.4,0.2-0.9,0.4-1.3,0.6c-3.5,1.7-5.8,2.2-10.9,2.5c-2.7,0.2-6.3-1.6-6.5-4.1l-0.9-5.4C160.7,117.7,160.6,117,160.7,116.4z
		 M179.9,110.2c-1.9,0-3.5-1.6-3.5-3.5c0-1.9,1.6-3.5,3.5-3.5c1.9,0,3.5,1.6,3.5,3.5C183.4,108.6,181.8,110.2,179.9,110.2z
		 M183.1,113.9c-0.2-0.4-0.6-0.8-1.1-0.7c-0.3,0.1-0.6,0.4-0.7,0.7l-0.1,0.3c0,0.1-0.1,0.3-0.1,0.4c-1.2,4.8-2.4,5.6-2.5,5.6
		c-0.1,0-0.1,0.1-0.1,0.1c-0.2,0-0.5,0.1-0.8,0.2c-0.1,0-0.2,0-0.2,0.1l-3.1-6.6l2.3-2.5c1,0.7,2.1,1.1,3.4,1.1c1.8,0,3.3-0.8,4.4-2
		l3.5,3.2c-0.2,0-0.4,0.1-0.7,0.2c-1.4,0.8-2.9,1.8-3,1.8c-0.4,0.2-0.8,0.4-1.1,0.6c0-0.4,0-1,0-1.3
		C183.1,114.3,183.1,114.1,183.1,113.9z M175.8,110.9l-2,2.2l-1.1-2.4l0.8-0.5c0.3-0.2,0.4-0.4,0.4-0.6l-0.1-1.3
		c0-0.4-0.5-0.5-0.9-0.2l-1.2,0.7l-1.7-3.5l0.1,0c0.2-0.1,0.3-0.3,0.2-0.5l-1.2-2.6c-0.1-0.2-0.3-0.3-0.5-0.2l-2.9,1.5
		c-0.2,0.1-0.3,0.3-0.2,0.5l1.2,2.6c0.1,0.2,0.3,0.3,0.5,0.2l0.3-0.1l1.8,3.6l-1.4,0.7c-0.4,0.2-0.6,0.7-0.3,0.9l1.1,0.8
		c0.2,0.1,0.5,0.1,0.7,0l0.9-0.4l4.7,9.3c-0.8,0.2-1.5,0.4-1.9,0.4l-0.2,0c-1.3,0.1-2.8,0.3-3.5-0.6c-0.4-0.5-0.8-2.1-1.1-3.2
		c-0.1-0.6-0.3-1.1-0.4-1.4c0-0.1-0.1-0.2-0.1-0.4c-0.1-0.3-0.2-0.6-0.2-0.8l0.2,0c0.2,0,0.4-0.2,0.3-0.5l-0.2-1.5
		c0-0.2-0.2-0.4-0.4-0.4l-0.1,0c-0.1-1.1-0.3-2.4-0.6-3.2c-0.1-0.2-0.3-0.4-0.6-0.3c-0.2,0.1-0.4,0.3-0.3,0.6c0.3,0.8,0.5,2.1,0.5,3
		l-5.7,0.8c0-0.1,0-0.2-0.1-0.3c-0.2-0.3-0.3-0.7-0.3-1l-0.4-3.7c-0.1-2.4,0.3-4.3,1.4-5.4c0.9-0.9,2.2-1.4,3.6-1.9
		c0.3-0.1,0.7-0.2,1-0.4c1.3-0.5,2.6-1.2,3.9-2l4.8,4.5c-0.5,0.9-0.7,1.8-0.7,2.9C174,108.3,174.7,109.9,175.8,110.9z M122,62.5
		v133.4c0,7.6,6,13.7,13.5,13.7h26.1c4.7,0,9.1,2.3,11.9,6.1l7.1,9.9l7.1-9.9c2.8-3.8,7.2-6.1,11.9-6.1h26.1
		c7.4,0,13.5-6.1,13.5-13.7V62.5H122z"/>
</g>
</svg>
